<svg width="40" height="45" viewBox="0 0 40 45" fill="none" xmlns="http://www.w3.org/2000/svg">
<path d="M1.11111 10.3025H4.75466L12.9862 36.0033C11.2506 36.6332 9.99998 38.3497 9.99998 40.3678C9.99998 42.9183 11.9937 44.9933 14.4444 44.9933C16.8951 44.9933 18.8888 42.9183 18.8888 40.3678C18.8888 39.5251 18.6675 38.7364 18.2875 38.0551H29.4902C29.1102 38.7364 28.8888 39.5251 28.8888 40.3678C28.8888 42.9183 30.8826 44.9933 33.3333 44.9933C35.7839 44.9933 37.7777 42.9183 37.7777 40.3678C37.7777 37.8174 35.7839 35.7424 33.3333 35.7424H15.2453L13.764 31.1169H34.4444C34.9226 31.1169 35.347 30.7987 35.4986 30.3265L39.943 16.4501C40.0559 16.0972 39.999 15.7096 39.7906 15.408C39.5812 15.1069 39.2461 14.9279 38.8888 14.9279H8.57865L6.60976 8.78023C6.45821 8.30798 6.03376 7.98975 5.55554 7.98975H1.11111C0.497332 7.98975 0 8.50733 0 9.14611C0 9.78488 0.497332 10.3025 1.11111 10.3025ZM33.3333 38.0551C34.5586 38.0551 35.5555 39.0926 35.5555 40.3678C35.5555 41.6431 34.5586 42.6805 33.3333 42.6805C32.1079 42.6805 31.111 41.6431 31.111 40.3678C31.111 39.0926 32.1079 38.0551 33.3333 38.0551ZM14.4444 38.0551C15.6697 38.0551 16.6666 39.0926 16.6666 40.3678C16.6666 41.6431 15.6697 42.6805 14.4444 42.6805C13.2191 42.6805 12.2222 41.6431 12.2222 40.3678C12.2222 39.0926 13.2191 38.0551 14.4444 38.0551ZM37.347 17.2406L33.6435 28.8042H13.0231L9.31953 17.2406H37.347Z" fill="#230C53"/>
<path d="M22.6928 13.7071C23.0833 14.0976 23.7165 14.0976 24.107 13.7071L30.471 7.34315C30.8615 6.95262 30.8615 6.31946 30.471 5.92893C30.0804 5.53841 29.4473 5.53841 29.0568 5.92893L23.3999 11.5858L17.743 5.92893C17.3525 5.53841 16.7194 5.53841 16.3288 5.92893C15.9383 6.31946 15.9383 6.95262 16.3288 7.34315L22.6928 13.7071ZM22.3999 0V13H24.3999V0L22.3999 0Z" fill="#230C53"/>
</svg>
