<svg width="15" height="26" viewBox="0 0 15 26" fill="none" xmlns="http://www.w3.org/2000/svg">
<path d="M0.75 19.2981C0.75 22.6298 3.81715 25.25 7.55789 25.25C11.2337 25.25 14.3694 22.581 14.2465 19.2933L14.2465 8.82721C14.2465 8.39828 13.8622 8.11069 13.46 8.11069C13.0574 8.11069 12.674 8.39861 12.674 8.82721L12.674 19.2462C12.674 21.6683 10.375 23.7138 7.49827 23.7138C4.62155 23.7138 2.32311 21.6683 2.32311 19.2462L2.32311 5.14687C2.32311 3.55426 3.78741 2.23488 5.71035 2.23488C7.63324 2.23488 9.097 3.55421 9.097 5.14687L9.097 17.1728C9.097 17.8847 8.40772 18.5302 7.49827 18.5302C6.58898 18.5302 5.90014 17.8843 5.90014 17.1728L5.90014 8.82721C5.90014 8.39828 5.51576 8.11069 5.11358 8.11069C4.7114 8.11069 4.32703 8.39828 4.32703 8.82721L4.32703 17.1728C4.32703 18.7975 5.84761 20.0146 7.55789 20.0146C9.33469 20.0146 10.7887 18.7391 10.7887 17.1728L10.7887 5.14687C10.7887 2.69631 8.49601 0.75 5.76937 0.75C3.04212 0.75 0.75 2.69633 0.75 5.14687L0.75 19.2981Z" fill="#230C53" stroke="#230C53" stroke-width="0.5"/>
</svg>
