<svg width="24" height="24" viewBox="0 0 24 24" fill="none" xmlns="http://www.w3.org/2000/svg">
<path d="M12 0.75C9.77496 0.75 7.59989 1.4098 5.74984 2.64597C3.89979 3.88213 2.45785 5.63914 1.60636 7.69481C0.754874 9.75048 0.532087 12.0125 0.96617 14.1948C1.40025 16.377 2.47171 18.3816 4.04505 19.9549C5.61839 21.5283 7.62295 22.5997 9.80524 23.0338C11.9875 23.4679 14.2495 23.2451 16.3052 22.3936C18.3609 21.5422 20.1179 20.1002 21.354 18.2502C22.5902 16.4001 23.25 14.225 23.25 12C23.25 9.01631 22.0647 6.15483 19.955 4.04505C17.8452 1.93526 14.9837 0.75 12 0.75ZM12 21.6389C10.0936 21.6389 8.23002 21.0736 6.64492 20.0144C5.05982 18.9553 3.82438 17.4499 3.09483 15.6886C2.36529 13.9274 2.17441 11.9893 2.54632 10.1195C2.91824 8.24978 3.83626 6.5323 5.18428 5.18428C6.5323 3.83625 8.24979 2.91824 10.1195 2.54632C11.9893 2.1744 13.9274 2.36528 15.6886 3.09483C17.4499 3.82437 18.9553 5.05981 20.0144 6.64492C21.0736 8.23002 21.6389 10.0936 21.6389 12C21.6316 14.5541 20.6137 17.0016 18.8076 18.8076C17.0016 20.6137 14.5541 21.6316 12 21.6389Z" fill="#230C53" stroke="#230C53" stroke-width="0.5"/>
<path d="M15.0281 14.2306L15.0202 14.2236L15.0118 14.2173L12.1668 12.0701V6.52796C12.1668 6.31432 12.0819 6.10942 11.9308 5.95835C11.7798 5.80728 11.5749 5.72241 11.3612 5.72241C11.1476 5.72241 10.9427 5.80728 10.7916 5.95835C10.6405 6.10942 10.5557 6.31432 10.5557 6.52796V12.4724H10.5556L10.5557 12.4783C10.5586 12.601 10.5886 12.7215 10.6435 12.8312C10.6984 12.941 10.7768 13.0373 10.8732 13.1132L10.8732 13.1133L10.8773 13.1164L14.0367 15.4998C14.1053 15.5589 14.1848 15.6041 14.2707 15.6328C14.3578 15.6618 14.4497 15.6733 14.5412 15.6665C14.6614 15.6626 14.7792 15.6328 14.8868 15.579C14.9965 15.5241 15.0928 15.4457 15.1687 15.3493L15.1773 15.3384L15.1846 15.3266C15.2915 15.1547 15.3344 14.9506 15.3058 14.7501C15.2772 14.5497 15.1788 14.3658 15.0281 14.2306Z" fill="#230C53" stroke="#230C53" stroke-width="0.5"/>
</svg>
