<svg width="20" height="20" viewBox="0 0 20 20" fill="none" xmlns="http://www.w3.org/2000/svg">
<path d="M10 20C4.48444 20 0 15.5156 0 10C0 4.48444 4.48444 0 10 0C15.5156 0 20 4.48444 20 10C20 15.5156 15.5156 20 10 20ZM10 1.34667C5.23111 1.34667 1.34667 5.22667 1.34667 10C1.34667 14.7733 5.23111 18.6533 10 18.6533C14.7689 18.6533 18.6533 14.7689 18.6533 10C18.6533 5.23111 14.7689 1.34667 10 1.34667Z" fill="#230C53"/>
<path d="M10.3154 14.3292C11.4754 14.3292 12.5643 13.8714 13.3865 13.0403C13.7065 12.7159 14.2265 12.7159 14.551 13.0314C14.8754 13.3514 14.8754 13.8714 14.5599 14.1959C13.4265 15.3425 11.9199 15.9736 10.3154 15.9736C7.00876 15.9736 4.31543 13.2492 4.31543 9.90252C4.31543 6.55585 7.00876 3.83141 10.3154 3.83141C11.8043 3.83141 13.231 4.38697 14.3332 5.39585C14.6665 5.70252 14.6932 6.22252 14.3865 6.55585C14.0799 6.88919 13.5599 6.91586 13.2265 6.60919C12.4265 5.8803 11.3954 5.47586 10.3199 5.47586C7.91987 5.47586 5.96432 7.46252 5.96432 9.90252C5.96432 12.3425 7.91543 14.3292 10.3154 14.3292Z" fill="#230C53"/>
</svg>
