<svg width="60" height="60" viewBox="0 0 60 60" fill="none" xmlns="http://www.w3.org/2000/svg">
<path d="M58.2581 21.1938L56.129 19.5618V12.8523C56.129 10.3136 54 8.31885 51.2903 8.31885H41.7097L31.8387 0.612014C30.7742 -0.204005 29.2258 -0.204005 28.1613 0.612014L18.2903 8.31885H8.70968C6 8.31885 3.87097 10.3136 3.87097 12.8523V19.5618L1.74193 21.1938C0.677419 22.1005 0 23.2792 0 24.6392V55.4666C0 58.0053 2.12903 60 4.83871 60H55.1613C57.871 60 60 58.0053 60 55.4666V24.7299C60 23.3699 59.3226 22.1005 58.2581 21.1938ZM29.4194 1.97204C29.6129 1.88138 29.8064 1.79071 30 1.79071C30.1935 1.79071 30.4839 1.88138 30.5806 1.97204L38.7097 8.31885H21.2903L29.4194 1.97204ZM5.80645 12.8523C5.80645 11.3109 7.06452 10.1322 8.70968 10.1322H51.2903C52.9355 10.1322 54.1935 11.3109 54.1935 12.8523V22.1005H54C53.2258 22.1005 52.4516 22.3725 51.9677 22.9165L49.2581 25.4552C49.0645 25.6366 48.871 25.7272 48.5806 25.7272H11.4194C11.129 25.7272 10.9355 25.6366 10.7419 25.4552L8.03226 22.9165C7.45161 22.3725 6.77419 22.1005 6 22.1005H5.80645V12.8523ZM58.0645 55.4666C58.0645 56.9173 56.8064 58.1866 55.1613 58.1866H4.83871C3.19355 58.1866 1.93548 56.9173 1.93548 55.4666V26.6339C1.93548 25.0926 3.19355 23.9139 4.83871 23.9139H6C6.29032 23.9139 6.48387 24.0045 6.67742 24.1859L9.3871 26.7246C9.96774 27.2686 10.6452 27.5406 11.4194 27.5406H48.4839C49.2581 27.5406 50.0323 27.2686 50.5161 26.7246L53.2258 24.1859C53.4194 24.0045 53.6129 23.9139 53.9032 23.9139H55.1613C56.8064 23.9139 58.0645 25.0926 58.0645 26.6339V55.4666Z" fill="#230C53"/>
<path d="M37.4514 40.6877C37.2578 40.8691 37.0643 40.9597 36.7739 40.9597C36.4836 40.9597 36.2901 40.8691 36.0965 40.6877L30.9675 35.8823V51.84C30.9675 52.2933 30.4836 52.7467 29.9997 52.7467C29.5159 52.7467 29.032 52.2933 29.032 51.84V35.8823L23.903 40.6877C23.5159 41.0504 22.9352 41.0504 22.5481 40.6877C22.161 40.3251 22.161 39.781 22.5481 39.4184L29.3223 33.0716C29.7094 32.7089 30.2901 32.7089 30.6772 33.0716L37.4514 39.4184C37.8385 39.781 37.8385 40.3251 37.4514 40.6877Z" fill="#230C53"/>
</svg>
