<svg width="41" height="42" viewBox="0 0 41 42" fill="none" xmlns="http://www.w3.org/2000/svg">
<mask id="path-1-outside-1" maskUnits="userSpaceOnUse" x="9.88477" y="-0.289062" width="31" height="42" fill="black">
<rect fill="white" x="9.88477" y="-0.289062" width="31" height="42"/>
<path d="M10.9037 27.7824C10.9037 29.5776 10.9037 31.3681 10.9037 33.1633C10.9037 34.3776 10.9037 35.5919 10.9037 36.8062C10.9037 37.3871 10.8552 37.9871 10.9134 38.5681C11.0349 39.7633 11.9964 40.6871 13.2348 40.7109C13.3271 40.7109 13.4194 40.7109 13.5116 40.7109C14.075 40.7109 14.6432 40.7109 15.2065 40.7109C17.3968 40.7109 19.587 40.7109 21.7821 40.7109C24.4531 40.7109 27.1242 40.7109 29.8 40.7109C31.8932 40.7109 33.9863 40.7109 36.0842 40.7109C36.565 40.7109 37.0458 40.7109 37.5266 40.7109C37.8811 40.7109 38.2211 40.6633 38.5513 40.5252C39.4303 40.1586 39.9742 39.3157 39.9936 38.3871C40.0082 37.5633 39.9936 36.7347 39.9936 35.9109C39.9936 33.9871 39.9936 32.0681 39.9936 30.1443C39.9936 27.6252 39.9936 25.1062 39.9936 22.5871C39.9936 19.9538 39.9936 17.3157 39.9936 14.6824C39.9936 12.4109 39.9936 10.1443 39.9936 7.87284C39.9936 6.47284 39.9936 5.07284 39.9936 3.66808C39.9936 3.43951 39.9985 3.20618 39.9936 2.9776C39.9742 1.94427 39.2458 0.977604 38.1871 0.76808C37.954 0.720461 37.7257 0.710938 37.4926 0.710938C36.0697 0.710938 34.6419 0.710938 33.219 0.710938C30.6839 0.710938 28.1537 0.710938 25.6187 0.710938C23.0545 0.710938 20.4952 0.710938 17.931 0.710938C16.4449 0.710938 14.9588 0.710938 13.4728 0.710938C13.3951 0.710938 13.3125 0.710938 13.2348 0.710938C11.9527 0.734747 10.9329 1.71094 10.9037 2.97284C10.8892 3.55379 10.9037 4.12999 10.9037 4.71094C10.9037 7.15856 10.9037 9.61094 10.9037 12.0586C10.9037 12.5824 10.9037 13.1109 10.9037 13.6347C10.9037 14.1347 11.3505 14.6109 11.875 14.5871C12.3995 14.5633 12.8463 14.1681 12.8463 13.6347C12.8463 11.8728 12.8463 10.1109 12.8463 8.34903C12.8463 6.55856 12.8074 4.76332 12.8463 2.97284C12.8463 2.97284 12.8463 2.83951 12.8512 2.83951C12.8949 2.82522 12.7929 3.05379 12.8512 2.90141C12.856 2.88237 12.8609 2.85856 12.8706 2.83951C12.9046 2.73951 12.8949 2.75856 12.8414 2.89189C12.8366 2.89189 12.8949 2.79665 12.8997 2.78237C13.0163 2.58713 12.8997 2.78237 12.8949 2.7776C12.89 2.77284 12.9726 2.70141 12.9823 2.69189C13.06 2.62522 13.0454 2.63475 12.9337 2.72522C12.9677 2.70141 13.0017 2.6776 13.0406 2.65856C13.0551 2.64903 13.1474 2.59665 13.1523 2.60141C13.1134 2.6157 13.0746 2.63475 13.0406 2.64903C13.0794 2.63475 13.1231 2.62522 13.1668 2.6157C13.3222 2.56332 13.0891 2.65379 13.1037 2.6157C13.1037 2.61094 13.2348 2.61094 13.2397 2.61094C13.2445 2.61094 13.2494 2.61094 13.2542 2.61094C13.3611 2.61094 13.4728 2.61094 13.5796 2.61094C14.1624 2.61094 14.7452 2.61094 15.3279 2.61094C17.4987 2.61094 19.6647 2.61094 21.8355 2.61094C24.492 2.61094 27.1484 2.61094 29.8049 2.61094C31.8737 2.61094 33.9426 2.61094 36.0114 2.61094C36.5067 2.61094 37.0021 2.61094 37.4975 2.61094C37.5412 2.61094 37.5897 2.61094 37.6334 2.61094C37.6431 2.61094 37.6529 2.61094 37.6626 2.61094H37.6674C37.6723 2.61094 37.7306 2.61094 37.7354 2.61094C37.8471 2.62046 37.8228 2.6157 37.6723 2.60141C37.716 2.61094 37.7548 2.62046 37.7985 2.62999C37.954 2.65856 37.7111 2.63475 37.7451 2.60141C37.7548 2.59189 37.8957 2.68237 37.9102 2.69189C38.0462 2.75856 37.8325 2.6776 37.8665 2.65379C37.8714 2.64903 38.0025 2.78237 38.0025 2.78237C37.9928 2.79189 37.8714 2.5776 37.9637 2.73475C37.9685 2.74427 38.0657 2.89189 38.0559 2.89665C38.0365 2.90618 37.988 2.65856 38.0268 2.84427C38.0414 2.88237 38.0511 2.92522 38.0608 2.96808C38.0462 2.82998 38.0414 2.80141 38.0462 2.87284C38.0462 2.9157 38.0511 2.95856 38.0511 3.00141C38.0608 3.85856 38.0511 4.72046 38.0511 5.5776C38.0511 7.48713 38.0511 9.39665 38.0511 11.3062C38.0511 13.7919 38.0511 16.2728 38.0511 18.7586C38.0511 21.3586 38.0511 23.9538 38.0511 26.5538C38.0511 28.8062 38.0511 31.0586 38.0511 33.3109C38.0511 34.7395 38.0511 36.1681 38.0511 37.5967C38.0511 37.8538 38.0559 38.1157 38.0511 38.3728C38.0511 38.3776 38.0511 38.3871 38.0511 38.3919V38.3967C38.0511 38.4395 38.0511 38.4871 38.0462 38.53C38.0705 38.3871 38.0705 38.3633 38.0462 38.4681C38.0365 38.4871 38.0074 38.5776 38.0074 38.5919C38.0219 38.5538 38.0414 38.5205 38.0559 38.4824C38.0365 38.5205 38.0171 38.5586 37.9977 38.5967C37.988 38.6109 37.9345 38.7062 37.9297 38.7014C37.954 38.6681 37.9782 38.6395 38.0025 38.6062C37.9734 38.6395 37.9442 38.6681 37.9151 38.6967C37.9005 38.7109 37.8325 38.7824 37.818 38.7824C37.8471 38.7586 37.8811 38.7347 37.9102 38.7062C37.8763 38.73 37.8374 38.749 37.7985 38.7728C37.6674 38.8586 37.8568 38.7252 37.8568 38.7538C37.818 38.7681 37.7743 38.7824 37.7306 38.7919C37.6431 38.8109 37.6431 38.8109 37.7306 38.8014C37.75 38.8014 37.7743 38.7967 37.7937 38.7967C37.75 38.8014 37.7063 38.8014 37.6577 38.8014H37.6529C37.6431 38.8014 37.6286 38.8014 37.6189 38.8014C37.5703 38.8014 37.5217 38.8014 37.4732 38.8014C36.06 38.8014 34.6467 38.8014 33.2384 38.8014C30.7325 38.8014 28.2217 38.8014 25.7158 38.8014C23.1856 38.8014 20.6554 38.8014 18.1301 38.8014C16.6052 38.8014 15.0803 38.8014 13.5553 38.8014C13.4534 38.8014 13.3514 38.8014 13.2445 38.8014C13.2202 38.8014 13.1911 38.8014 13.1668 38.8014C13.0066 38.8014 13.2348 38.7871 13.23 38.8109C13.23 38.8109 13.0406 38.7728 13.0406 38.7586C13.0406 38.7395 13.2591 38.8824 13.0988 38.7776C13.06 38.7586 13.026 38.7347 12.9871 38.7109C13.0891 38.7919 13.1134 38.8109 13.0551 38.7633C13.026 38.7252 12.9774 38.6871 12.9386 38.6538C12.7929 38.5252 12.9871 38.7776 12.9531 38.6728C12.9386 38.63 12.8949 38.5776 12.8706 38.5347C12.7637 38.3633 12.9046 38.6776 12.8803 38.5586C12.8754 38.5443 12.8317 38.4062 12.8366 38.4014C12.8366 38.4014 12.8512 38.63 12.8463 38.4252C12.8463 38.4109 12.8463 38.3967 12.8463 38.3871C12.8366 37.7776 12.8463 37.1681 12.8463 36.5633C12.8463 34.1443 12.8463 31.7252 12.8463 29.3014C12.8463 28.7919 12.8463 28.2824 12.8463 27.7728C12.8463 27.2728 12.3995 26.7967 11.875 26.8205C11.3457 26.8538 10.9037 27.249 10.9037 27.7824Z"/>
</mask>
<path d="M10.9037 27.7824C10.9037 29.5776 10.9037 31.3681 10.9037 33.1633C10.9037 34.3776 10.9037 35.5919 10.9037 36.8062C10.9037 37.3871 10.8552 37.9871 10.9134 38.5681C11.0349 39.7633 11.9964 40.6871 13.2348 40.7109C13.3271 40.7109 13.4194 40.7109 13.5116 40.7109C14.075 40.7109 14.6432 40.7109 15.2065 40.7109C17.3968 40.7109 19.587 40.7109 21.7821 40.7109C24.4531 40.7109 27.1242 40.7109 29.8 40.7109C31.8932 40.7109 33.9863 40.7109 36.0842 40.7109C36.565 40.7109 37.0458 40.7109 37.5266 40.7109C37.8811 40.7109 38.2211 40.6633 38.5513 40.5252C39.4303 40.1586 39.9742 39.3157 39.9936 38.3871C40.0082 37.5633 39.9936 36.7347 39.9936 35.9109C39.9936 33.9871 39.9936 32.0681 39.9936 30.1443C39.9936 27.6252 39.9936 25.1062 39.9936 22.5871C39.9936 19.9538 39.9936 17.3157 39.9936 14.6824C39.9936 12.4109 39.9936 10.1443 39.9936 7.87284C39.9936 6.47284 39.9936 5.07284 39.9936 3.66808C39.9936 3.43951 39.9985 3.20618 39.9936 2.9776C39.9742 1.94427 39.2458 0.977604 38.1871 0.76808C37.954 0.720461 37.7257 0.710938 37.4926 0.710938C36.0697 0.710938 34.6419 0.710938 33.219 0.710938C30.6839 0.710938 28.1537 0.710938 25.6187 0.710938C23.0545 0.710938 20.4952 0.710938 17.931 0.710938C16.4449 0.710938 14.9588 0.710938 13.4728 0.710938C13.3951 0.710938 13.3125 0.710938 13.2348 0.710938C11.9527 0.734747 10.9329 1.71094 10.9037 2.97284C10.8892 3.55379 10.9037 4.12999 10.9037 4.71094C10.9037 7.15856 10.9037 9.61094 10.9037 12.0586C10.9037 12.5824 10.9037 13.1109 10.9037 13.6347C10.9037 14.1347 11.3505 14.6109 11.875 14.5871C12.3995 14.5633 12.8463 14.1681 12.8463 13.6347C12.8463 11.8728 12.8463 10.1109 12.8463 8.34903C12.8463 6.55856 12.8074 4.76332 12.8463 2.97284C12.8463 2.97284 12.8463 2.83951 12.8512 2.83951C12.8949 2.82522 12.7929 3.05379 12.8512 2.90141C12.856 2.88237 12.8609 2.85856 12.8706 2.83951C12.9046 2.73951 12.8949 2.75856 12.8414 2.89189C12.8366 2.89189 12.8949 2.79665 12.8997 2.78237C13.0163 2.58713 12.8997 2.78237 12.8949 2.7776C12.89 2.77284 12.9726 2.70141 12.9823 2.69189C13.06 2.62522 13.0454 2.63475 12.9337 2.72522C12.9677 2.70141 13.0017 2.6776 13.0406 2.65856C13.0551 2.64903 13.1474 2.59665 13.1523 2.60141C13.1134 2.6157 13.0746 2.63475 13.0406 2.64903C13.0794 2.63475 13.1231 2.62522 13.1668 2.6157C13.3222 2.56332 13.0891 2.65379 13.1037 2.6157C13.1037 2.61094 13.2348 2.61094 13.2397 2.61094C13.2445 2.61094 13.2494 2.61094 13.2542 2.61094C13.3611 2.61094 13.4728 2.61094 13.5796 2.61094C14.1624 2.61094 14.7452 2.61094 15.3279 2.61094C17.4987 2.61094 19.6647 2.61094 21.8355 2.61094C24.492 2.61094 27.1484 2.61094 29.8049 2.61094C31.8737 2.61094 33.9426 2.61094 36.0114 2.61094C36.5067 2.61094 37.0021 2.61094 37.4975 2.61094C37.5412 2.61094 37.5897 2.61094 37.6334 2.61094C37.6431 2.61094 37.6529 2.61094 37.6626 2.61094H37.6674C37.6723 2.61094 37.7306 2.61094 37.7354 2.61094C37.8471 2.62046 37.8228 2.6157 37.6723 2.60141C37.716 2.61094 37.7548 2.62046 37.7985 2.62999C37.954 2.65856 37.7111 2.63475 37.7451 2.60141C37.7548 2.59189 37.8957 2.68237 37.9102 2.69189C38.0462 2.75856 37.8325 2.6776 37.8665 2.65379C37.8714 2.64903 38.0025 2.78237 38.0025 2.78237C37.9928 2.79189 37.8714 2.5776 37.9637 2.73475C37.9685 2.74427 38.0657 2.89189 38.0559 2.89665C38.0365 2.90618 37.988 2.65856 38.0268 2.84427C38.0414 2.88237 38.0511 2.92522 38.0608 2.96808C38.0462 2.82998 38.0414 2.80141 38.0462 2.87284C38.0462 2.9157 38.0511 2.95856 38.0511 3.00141C38.0608 3.85856 38.0511 4.72046 38.0511 5.5776C38.0511 7.48713 38.0511 9.39665 38.0511 11.3062C38.0511 13.7919 38.0511 16.2728 38.0511 18.7586C38.0511 21.3586 38.0511 23.9538 38.0511 26.5538C38.0511 28.8062 38.0511 31.0586 38.0511 33.3109C38.0511 34.7395 38.0511 36.1681 38.0511 37.5967C38.0511 37.8538 38.0559 38.1157 38.0511 38.3728C38.0511 38.3776 38.0511 38.3871 38.0511 38.3919V38.3967C38.0511 38.4395 38.0511 38.4871 38.0462 38.53C38.0705 38.3871 38.0705 38.3633 38.0462 38.4681C38.0365 38.4871 38.0074 38.5776 38.0074 38.5919C38.0219 38.5538 38.0414 38.5205 38.0559 38.4824C38.0365 38.5205 38.0171 38.5586 37.9977 38.5967C37.988 38.6109 37.9345 38.7062 37.9297 38.7014C37.954 38.6681 37.9782 38.6395 38.0025 38.6062C37.9734 38.6395 37.9442 38.6681 37.9151 38.6967C37.9005 38.7109 37.8325 38.7824 37.818 38.7824C37.8471 38.7586 37.8811 38.7347 37.9102 38.7062C37.8763 38.73 37.8374 38.749 37.7985 38.7728C37.6674 38.8586 37.8568 38.7252 37.8568 38.7538C37.818 38.7681 37.7743 38.7824 37.7306 38.7919C37.6431 38.8109 37.6431 38.8109 37.7306 38.8014C37.75 38.8014 37.7743 38.7967 37.7937 38.7967C37.75 38.8014 37.7063 38.8014 37.6577 38.8014H37.6529C37.6431 38.8014 37.6286 38.8014 37.6189 38.8014C37.5703 38.8014 37.5217 38.8014 37.4732 38.8014C36.06 38.8014 34.6467 38.8014 33.2384 38.8014C30.7325 38.8014 28.2217 38.8014 25.7158 38.8014C23.1856 38.8014 20.6554 38.8014 18.1301 38.8014C16.6052 38.8014 15.0803 38.8014 13.5553 38.8014C13.4534 38.8014 13.3514 38.8014 13.2445 38.8014C13.2202 38.8014 13.1911 38.8014 13.1668 38.8014C13.0066 38.8014 13.2348 38.7871 13.23 38.8109C13.23 38.8109 13.0406 38.7728 13.0406 38.7586C13.0406 38.7395 13.2591 38.8824 13.0988 38.7776C13.06 38.7586 13.026 38.7347 12.9871 38.7109C13.0891 38.7919 13.1134 38.8109 13.0551 38.7633C13.026 38.7252 12.9774 38.6871 12.9386 38.6538C12.7929 38.5252 12.9871 38.7776 12.9531 38.6728C12.9386 38.63 12.8949 38.5776 12.8706 38.5347C12.7637 38.3633 12.9046 38.6776 12.8803 38.5586C12.8754 38.5443 12.8317 38.4062 12.8366 38.4014C12.8366 38.4014 12.8512 38.63 12.8463 38.4252C12.8463 38.4109 12.8463 38.3967 12.8463 38.3871C12.8366 37.7776 12.8463 37.1681 12.8463 36.5633C12.8463 34.1443 12.8463 31.7252 12.8463 29.3014C12.8463 28.7919 12.8463 28.2824 12.8463 27.7728C12.8463 27.2728 12.3995 26.7967 11.875 26.8205C11.3457 26.8538 10.9037 27.249 10.9037 27.7824Z" fill="#230C53"/>
<path d="M10.9037 27.7824C10.9037 29.5776 10.9037 31.3681 10.9037 33.1633C10.9037 34.3776 10.9037 35.5919 10.9037 36.8062C10.9037 37.3871 10.8552 37.9871 10.9134 38.5681C11.0349 39.7633 11.9964 40.6871 13.2348 40.7109C13.3271 40.7109 13.4194 40.7109 13.5116 40.7109C14.075 40.7109 14.6432 40.7109 15.2065 40.7109C17.3968 40.7109 19.587 40.7109 21.7821 40.7109C24.4531 40.7109 27.1242 40.7109 29.8 40.7109C31.8932 40.7109 33.9863 40.7109 36.0842 40.7109C36.565 40.7109 37.0458 40.7109 37.5266 40.7109C37.8811 40.7109 38.2211 40.6633 38.5513 40.5252C39.4303 40.1586 39.9742 39.3157 39.9936 38.3871C40.0082 37.5633 39.9936 36.7347 39.9936 35.9109C39.9936 33.9871 39.9936 32.0681 39.9936 30.1443C39.9936 27.6252 39.9936 25.1062 39.9936 22.5871C39.9936 19.9538 39.9936 17.3157 39.9936 14.6824C39.9936 12.4109 39.9936 10.1443 39.9936 7.87284C39.9936 6.47284 39.9936 5.07284 39.9936 3.66808C39.9936 3.43951 39.9985 3.20618 39.9936 2.9776C39.9742 1.94427 39.2458 0.977604 38.1871 0.76808C37.954 0.720461 37.7257 0.710938 37.4926 0.710938C36.0697 0.710938 34.6419 0.710938 33.219 0.710938C30.6839 0.710938 28.1537 0.710938 25.6187 0.710938C23.0545 0.710938 20.4952 0.710938 17.931 0.710938C16.4449 0.710938 14.9588 0.710938 13.4728 0.710938C13.3951 0.710938 13.3125 0.710938 13.2348 0.710938C11.9527 0.734747 10.9329 1.71094 10.9037 2.97284C10.8892 3.55379 10.9037 4.12999 10.9037 4.71094C10.9037 7.15856 10.9037 9.61094 10.9037 12.0586C10.9037 12.5824 10.9037 13.1109 10.9037 13.6347C10.9037 14.1347 11.3505 14.6109 11.875 14.5871C12.3995 14.5633 12.8463 14.1681 12.8463 13.6347C12.8463 11.8728 12.8463 10.1109 12.8463 8.34903C12.8463 6.55856 12.8074 4.76332 12.8463 2.97284C12.8463 2.97284 12.8463 2.83951 12.8512 2.83951C12.8949 2.82522 12.7929 3.05379 12.8512 2.90141C12.856 2.88237 12.8609 2.85856 12.8706 2.83951C12.9046 2.73951 12.8949 2.75856 12.8414 2.89189C12.8366 2.89189 12.8949 2.79665 12.8997 2.78237C13.0163 2.58713 12.8997 2.78237 12.8949 2.7776C12.89 2.77284 12.9726 2.70141 12.9823 2.69189C13.06 2.62522 13.0454 2.63475 12.9337 2.72522C12.9677 2.70141 13.0017 2.6776 13.0406 2.65856C13.0551 2.64903 13.1474 2.59665 13.1523 2.60141C13.1134 2.6157 13.0746 2.63475 13.0406 2.64903C13.0794 2.63475 13.1231 2.62522 13.1668 2.6157C13.3222 2.56332 13.0891 2.65379 13.1037 2.6157C13.1037 2.61094 13.2348 2.61094 13.2397 2.61094C13.2445 2.61094 13.2494 2.61094 13.2542 2.61094C13.3611 2.61094 13.4728 2.61094 13.5796 2.61094C14.1624 2.61094 14.7452 2.61094 15.3279 2.61094C17.4987 2.61094 19.6647 2.61094 21.8355 2.61094C24.492 2.61094 27.1484 2.61094 29.8049 2.61094C31.8737 2.61094 33.9426 2.61094 36.0114 2.61094C36.5067 2.61094 37.0021 2.61094 37.4975 2.61094C37.5412 2.61094 37.5897 2.61094 37.6334 2.61094C37.6431 2.61094 37.6529 2.61094 37.6626 2.61094H37.6674C37.6723 2.61094 37.7306 2.61094 37.7354 2.61094C37.8471 2.62046 37.8228 2.6157 37.6723 2.60141C37.716 2.61094 37.7548 2.62046 37.7985 2.62999C37.954 2.65856 37.7111 2.63475 37.7451 2.60141C37.7548 2.59189 37.8957 2.68237 37.9102 2.69189C38.0462 2.75856 37.8325 2.6776 37.8665 2.65379C37.8714 2.64903 38.0025 2.78237 38.0025 2.78237C37.9928 2.79189 37.8714 2.5776 37.9637 2.73475C37.9685 2.74427 38.0657 2.89189 38.0559 2.89665C38.0365 2.90618 37.988 2.65856 38.0268 2.84427C38.0414 2.88237 38.0511 2.92522 38.0608 2.96808C38.0462 2.82998 38.0414 2.80141 38.0462 2.87284C38.0462 2.9157 38.0511 2.95856 38.0511 3.00141C38.0608 3.85856 38.0511 4.72046 38.0511 5.5776C38.0511 7.48713 38.0511 9.39665 38.0511 11.3062C38.0511 13.7919 38.0511 16.2728 38.0511 18.7586C38.0511 21.3586 38.0511 23.9538 38.0511 26.5538C38.0511 28.8062 38.0511 31.0586 38.0511 33.3109C38.0511 34.7395 38.0511 36.1681 38.0511 37.5967C38.0511 37.8538 38.0559 38.1157 38.0511 38.3728C38.0511 38.3776 38.0511 38.3871 38.0511 38.3919V38.3967C38.0511 38.4395 38.0511 38.4871 38.0462 38.53C38.0705 38.3871 38.0705 38.3633 38.0462 38.4681C38.0365 38.4871 38.0074 38.5776 38.0074 38.5919C38.0219 38.5538 38.0414 38.5205 38.0559 38.4824C38.0365 38.5205 38.0171 38.5586 37.9977 38.5967C37.988 38.6109 37.9345 38.7062 37.9297 38.7014C37.954 38.6681 37.9782 38.6395 38.0025 38.6062C37.9734 38.6395 37.9442 38.6681 37.9151 38.6967C37.9005 38.7109 37.8325 38.7824 37.818 38.7824C37.8471 38.7586 37.8811 38.7347 37.9102 38.7062C37.8763 38.73 37.8374 38.749 37.7985 38.7728C37.6674 38.8586 37.8568 38.7252 37.8568 38.7538C37.818 38.7681 37.7743 38.7824 37.7306 38.7919C37.6431 38.8109 37.6431 38.8109 37.7306 38.8014C37.75 38.8014 37.7743 38.7967 37.7937 38.7967C37.75 38.8014 37.7063 38.8014 37.6577 38.8014H37.6529C37.6431 38.8014 37.6286 38.8014 37.6189 38.8014C37.5703 38.8014 37.5217 38.8014 37.4732 38.8014C36.06 38.8014 34.6467 38.8014 33.2384 38.8014C30.7325 38.8014 28.2217 38.8014 25.7158 38.8014C23.1856 38.8014 20.6554 38.8014 18.1301 38.8014C16.6052 38.8014 15.0803 38.8014 13.5553 38.8014C13.4534 38.8014 13.3514 38.8014 13.2445 38.8014C13.2202 38.8014 13.1911 38.8014 13.1668 38.8014C13.0066 38.8014 13.2348 38.7871 13.23 38.8109C13.23 38.8109 13.0406 38.7728 13.0406 38.7586C13.0406 38.7395 13.2591 38.8824 13.0988 38.7776C13.06 38.7586 13.026 38.7347 12.9871 38.7109C13.0891 38.7919 13.1134 38.8109 13.0551 38.7633C13.026 38.7252 12.9774 38.6871 12.9386 38.6538C12.7929 38.5252 12.9871 38.7776 12.9531 38.6728C12.9386 38.63 12.8949 38.5776 12.8706 38.5347C12.7637 38.3633 12.9046 38.6776 12.8803 38.5586C12.8754 38.5443 12.8317 38.4062 12.8366 38.4014C12.8366 38.4014 12.8512 38.63 12.8463 38.4252C12.8463 38.4109 12.8463 38.3967 12.8463 38.3871C12.8366 37.7776 12.8463 37.1681 12.8463 36.5633C12.8463 34.1443 12.8463 31.7252 12.8463 29.3014C12.8463 28.7919 12.8463 28.2824 12.8463 27.7728C12.8463 27.2728 12.3995 26.7967 11.875 26.8205C11.3457 26.8538 10.9037 27.249 10.9037 27.7824Z" stroke="#230C53" stroke-width="0.6" mask="url(#path-1-outside-1)"/>
<path d="M0.962194 22.0354C1.89468 22.0354 2.82237 22.0354 3.75485 22.0354C5.98994 22.0354 8.22503 22.0354 10.4601 22.0354C13.1615 22.0354 15.8676 22.0354 18.5689 22.0354C20.905 22.0354 23.241 22.0354 25.5818 22.0354C26.7162 22.0354 27.8554 22.0638 28.9897 22.0354C29.0042 22.0354 29.0234 22.0354 29.0378 22.0354C29.5425 22.0354 30.0232 21.5122 29.9991 20.898C29.9751 20.2839 29.5762 19.7607 29.0378 19.7607C28.1053 19.7607 27.1776 19.7607 26.2451 19.7607C24.0101 19.7607 21.775 19.7607 19.5399 19.7607C16.8385 19.7607 14.1324 19.7607 11.4311 19.7607C9.09504 19.7607 6.75901 19.7607 4.41817 19.7607C3.2838 19.7607 2.14463 19.7323 1.01026 19.7607C0.99584 19.7607 0.976614 19.7607 0.962194 19.7607C0.457496 19.7607 -0.0231683 20.2839 0.00086493 20.898C0.0200915 21.5122 0.419043 22.0354 0.962194 22.0354Z" fill="#230C53"/>
<path d="M27.8141 20.6656L26.2285 22.2203L22.489 25.887L21.6246 26.7346C21.2293 27.1223 21.191 27.8372 21.6279 28.2282C22.0505 28.6063 22.713 28.6428 23.139 28.2251L25.4846 25.9251L29.2241 22.2584L30.0885 21.4108C30.4972 21.01 30.5028 20.3265 30.0885 19.9203L27.7429 17.6203L25.8731 15.787L24.0034 13.9537L23.139 13.106C22.7446 12.7193 22.019 12.6821 21.6214 13.1093C21.2349 13.5247 21.1973 14.1775 21.6246 14.5965L23.9702 16.8965L27.7097 20.5631L27.8141 20.6656Z" fill="#230C53" stroke="#230C53" stroke-width="0.2"/>
</svg>
