<?xml version="1.0" encoding="UTF-8" standalone="no" ?>
<!DOCTYPE svg PUBLIC "-//W3C//DTD SVG 1.1//EN" "http://www.w3.org/Graphics/SVG/1.1/DTD/svg11.dtd">
<svg xmlns="http://www.w3.org/2000/svg" xmlns:xlink="http://www.w3.org/1999/xlink" version="1.1" width="700" height="440" viewBox="0 0 700 440" xml:space="preserve">
<defs>                     
				<style type="text/css">
					@import url(https://fonts.googleapis.com/css2?family=El+Messiri:wght@400;700)
				</style>
                <style type="text/css">
                    @import url(http://fonts.googleapis.com/css?family=Raleway:100,100i,200,200i,300,300i,400,400i,500,500i,600,600i,700,700i,800,800i,900,900i)
                </style>
            
</defs>
<rect x="0" y="0" width="100%" height="100%" fill="#ffffff"></rect>
<g transform="matrix(1 0 0 1 350 220)"  >
<g style=""   >
		<g transform="matrix(0.18 0 0 0.18 -97.6 -0.99)"  >
<filter id="SVGID_13132" y="-20%" height="140%" x="-20%" width="140%" >
	<feGaussianBlur in="SourceAlpha" stdDeviation="0"></feGaussianBlur>
	<feOffset dx="0" dy="0" result="oBlur" ></feOffset>                
	<feFlood flood-color="rgb(0,0,0)" flood-opacity="1"/>
	<feComposite in2="oBlur" operator="in" />
	<feMerge>
		<feMergeNode></feMergeNode>
		<feMergeNode in="SourceGraphic"></feMergeNode>
	</feMerge>
</filter>
<g style="filter: url(#SVGID_13132);"   >
		<g transform="matrix(1 0 0 1 -36.87 31.15)" id="Layer_1"  >
<linearGradient id="SVGID_SVGID_1__155" gradientUnits="userSpaceOnUse" gradientTransform="matrix(1 0 0 1 0 0)"  x1="173.8719" y1="100.0529" x2="320.2372" y2="405.6708">
<stop offset="0%" style="stop-color:#7D3CD2;stop-opacity: 1"/>
<stop offset="99.95%" style="stop-color:#16005C;stop-opacity: 1"/>
</linearGradient>
<path style="stroke: none; stroke-width: 1; stroke-dasharray: none; stroke-linecap: butt; stroke-dashoffset: 0; stroke-linejoin: miter; stroke-miterlimit: 4; fill: url(#SVGID_SVGID_1__155); fill-rule: nonzero; opacity: 1;"  transform=" translate(-219.13, -287.15)" d="M 123.4 148.1 c 0 0 -27.2 39.9 -8.3 61.5 c 25.4 29 152 -16.7 235 -77.7 c 0 0 -60.3 64.6 -71.6 101.5 s 7.3 114.1 -101.7 209 c 0 0 63.9 -141.5 37.4 -165.9 c -29.6 -27.3 -98.6 -6.7 -118 -35.3 C 67.9 199.5 123.4 148.1 123.4 148.1 z" stroke-linecap="round" />
</g>
		<g transform="matrix(1 0 0 1 -39.2 -114)" id="Layer_1"  >
<linearGradient id="SVGID_SVGID_2__156" gradientUnits="userSpaceOnUse" gradientTransform="matrix(1 0 0 1 -216.8 -142)"  x1="173.6111" y1="116.9587" x2="254.618" y2="163.9058">
<stop offset="0%" style="stop-color:#FFFF00;stop-opacity: 1"/>
<stop offset="100%" style="stop-color:#C64AD1;stop-opacity: 1"/>
</linearGradient>
<ellipse style="stroke: none; stroke-width: 1; stroke-dasharray: none; stroke-linecap: butt; stroke-dashoffset: 0; stroke-linejoin: miter; stroke-miterlimit: 4; fill: url(#SVGID_SVGID_2__156); fill-rule: nonzero; opacity: 1;"  cx="0" cy="0" rx="28" ry="38.2" />
</g>
		<g transform="matrix(1 0 0 1 94.15 -180.3)" id="Layer_1"  >
<linearGradient id="SVGID_SVGID_3__157" gradientUnits="userSpaceOnUse" gradientTransform="matrix(1 0 0 1 0 0)"  x1="277.2145" y1="-10.0854" x2="402.8406" y2="137.6104">
<stop offset="0%" style="stop-color:#7D3CD2;stop-opacity: 1"/>
<stop offset="99.95%" style="stop-color:#16005C;stop-opacity: 1"/>
</linearGradient>
<path style="stroke: none; stroke-width: 1; stroke-dasharray: none; stroke-linecap: butt; stroke-dashoffset: 0; stroke-linejoin: miter; stroke-miterlimit: 4; fill: url(#SVGID_SVGID_3__157); fill-rule: nonzero; opacity: 1;"  transform=" translate(-350.15, -75.7)" d="M 372.8 77.1 c -1 15.5 -11.9 27.5 -24.4 26.7 c -12.5 -0.8 -21.9 -14 -20.9 -29.5 c 1 -15.5 11.9 -27.5 24.4 -26.7 C 364.4 48.3 373.8 61.6 372.8 77.1 z" stroke-linecap="round" />
</g>
		<g transform="matrix(1 0 0 1 -31.15 31.25)" id="Layer_1"  >
<linearGradient id="SVGID_SVGID_4__158" gradientUnits="userSpaceOnUse" gradientTransform="matrix(1 0 0 1 0 0)"  x1="205.0515" y1="127.6048" x2="310.9133" y2="416.6528">
<stop offset="0%" style="stop-color:#FFFF00;stop-opacity: 1"/>
<stop offset="100%" style="stop-color:#C64AD1;stop-opacity: 1"/>
</linearGradient>
<path style="stroke: none; stroke-width: 1; stroke-dasharray: none; stroke-linecap: butt; stroke-dashoffset: 0; stroke-linejoin: miter; stroke-miterlimit: 4; fill: url(#SVGID_SVGID_4__158); fill-rule: nonzero; opacity: 1;"  transform=" translate(-224.85, -287.25)" d="M 113.7 227.5 c 36.8 28.2 119.9 -23.3 131.1 30.7 c 11.2 54 -33.6 144 -68 184.3 c 109.1 -94.9 90.5 -172.1 101.7 -209 S 350.2 132 350.2 132 c -83 61 -209.6 106.7 -235 77.7 c -18.9 -21.6 8.3 -61.5 8.3 -61.5 S 76.8 199.2 113.7 227.5 z" stroke-linecap="round" />
</g>
		<g transform="matrix(1 0 0 1 -41.17 -105.15)" id="Layer_1"  >
<linearGradient id="SVGID_SVGID_5__159" gradientUnits="userSpaceOnUse" gradientTransform="matrix(1 0 0 1 0 0)"  x1="194.4536" y1="112.3843" x2="234.0366" y2="193.3916">
<stop offset="0%" style="stop-color:#7D3CD2;stop-opacity: 1"/>
<stop offset="99.95%" style="stop-color:#16005C;stop-opacity: 1"/>
</linearGradient>
<path style="stroke: none; stroke-width: 1; stroke-dasharray: none; stroke-linecap: butt; stroke-dashoffset: 0; stroke-linejoin: miter; stroke-miterlimit: 4; fill: url(#SVGID_SVGID_5__159); fill-rule: nonzero; opacity: 1;"  transform=" translate(-214.83, -150.85)" d="M 236.3 169.4 c 11.2 -17.6 0.6 -26 -19.5 -22.3 c -20 3.7 -28 -5.1 -23.6 -25.6 c -2.8 5.9 -4.4 13 -4.4 20.5 c 0 21.1 12.5 38.2 28 38.2 C 224.4 180.1 231.2 176 236.3 169.4 z" stroke-linecap="round" />
</g>
		<g transform="matrix(1 0 0 1 -95.63 39.3)" id="Layer_1"  >
<linearGradient id="SVGID_SVGID_6__160" gradientUnits="userSpaceOnUse" gradientTransform="matrix(1 0 0 1 0 0)"  x1="161.6707" y1="427.8022" x2="159.8015" y2="186.6483">
<stop offset="0%" style="stop-color:#000000;stop-opacity: 1"/>
<stop offset="99.11999999999999%" style="stop-color:#000000;stop-opacity: 0"/>
</linearGradient>
<path style="stroke: none; stroke-width: 1; stroke-dasharray: none; stroke-linecap: butt; stroke-dashoffset: 0; stroke-linejoin: miter; stroke-miterlimit: 4; fill: url(#SVGID_SVGID_6__160); fill-rule: nonzero; opacity: 0.22;"  transform=" translate(-160.37, -295.3)" d="M 228.6 270.9 c -18.9 -46.9 -93 -6 -124.7 -38.7 c -31.8 -32.7 19.6 -84.1 19.6 -84.1 s -55.5 51.4 -27.2 93.2 c 19.4 28.6 88.4 8 118 35.3 c 26.5 24.4 -37.4 165.9 -37.4 165.9 C 191.9 418.4 247.5 317.8 228.6 270.9 z" stroke-linecap="round" />
</g>
		<g transform="matrix(1 0 0 1 -28.92 31.25)" id="Layer_1"  >
<linearGradient id="SVGID_SVGID_7__161" gradientUnits="userSpaceOnUse" gradientTransform="matrix(1 0 0 1 0 0)"  x1="234.8646" y1="419.3807" x2="228.2975" y2="205.1241">
<stop offset="0%" style="stop-color:#000000;stop-opacity: 1"/>
<stop offset="99.11999999999999%" style="stop-color:#000000;stop-opacity: 0"/>
</linearGradient>
<path style="stroke: none; stroke-width: 1; stroke-dasharray: none; stroke-linecap: butt; stroke-dashoffset: 0; stroke-linejoin: miter; stroke-miterlimit: 4; fill: url(#SVGID_SVGID_7__161); fill-rule: nonzero; opacity: 0.22;"  transform=" translate(-227.08, -287.25)" d="M 117.2 220.3 c 33.1 20.7 119.2 -23.9 138.5 17 c 19.3 41 -18.3 152.1 -78.9 205.2 c 109.1 -94.9 90.5 -172.1 101.7 -209 S 350.2 132 350.2 132 c -83 61 -209.6 106.7 -235 77.7 c -18.9 -21.6 8.3 -61.5 8.3 -61.5 S 84.1 199.6 117.2 220.3 z" stroke-linecap="round" />
</g>
		<g transform="matrix(1 0 0 1 13.27 109.65)" id="Layer_1"  >
<linearGradient id="SVGID_SVGID_8__162" gradientUnits="userSpaceOnUse" gradientTransform="matrix(1 0 0 1 0 0)"  x1="256.4716" y1="252.4703" x2="282.2466" y2="494.2637">
<stop offset="0%" style="stop-color:#FFFF00;stop-opacity: 1"/>
<stop offset="100%" style="stop-color:#C64AD1;stop-opacity: 1"/>
</linearGradient>
<path style="stroke: none; stroke-width: 1; stroke-dasharray: none; stroke-linecap: butt; stroke-dashoffset: 0; stroke-linejoin: miter; stroke-miterlimit: 4; fill: url(#SVGID_SVGID_8__162); fill-rule: nonzero; opacity: 1;"  transform=" translate(-269.27, -365.65)" d="M 285.5 411.7 c 4.5 -49.9 -8.7 -99.6 -8.7 -99.6 c -8.6 40.4 -24.7 57.1 -24.7 57.1 c 7.3 17.3 10.6 34.4 11.5 50 c 3.7 -1.2 7.5 -2.4 11.3 -3.8 C 278.3 414.2 281.9 412.9 285.5 411.7 z" stroke-linecap="round" />
</g>
		<g transform="matrix(1 0 0 1 -0.17 100.02)" id="Layer_1"  >
<linearGradient id="SVGID_SVGID_9__163" gradientUnits="userSpaceOnUse" gradientTransform="matrix(1 0 0 1 0 0)"  x1="154.3031" y1="250.0146" x2="356.1903" y2="455.7896">
<stop offset="0%" style="stop-color:#7D3CD2;stop-opacity: 1"/>
<stop offset="99.95%" style="stop-color:#16005C;stop-opacity: 1"/>
</linearGradient>
<path style="stroke: none; stroke-width: 1; stroke-dasharray: none; stroke-linecap: butt; stroke-dashoffset: 0; stroke-linejoin: miter; stroke-miterlimit: 4; fill: url(#SVGID_SVGID_9__163); fill-rule: nonzero; opacity: 1;"  transform=" translate(-255.83, -356.02)" d="M 295.6 248.1 c 9.4 -2.9 18.9 -5.3 28.4 -7.6 c 9.6 -2.2 19.3 -4 29 -5.5 c 19.5 -2.9 39.5 -4.4 59.6 -3.2 c 10.1 0.7 20.3 2.1 30.4 4.8 c 10.1 2.8 20.3 6.7 29.6 13.9 c 4.6 3.6 8.9 8 12.1 13.4 c 1.6 2.7 3 5.6 4 8.5 l 1.4 4.6 c 0.3 1.5 0.6 3.1 0.8 4.7 c 0.3 1.6 0.3 3.1 0.4 4.7 c 0.1 1.6 0.1 3.1 0 4.6 c -0.1 1.5 -0.2 3.1 -0.4 4.6 l -0.8 4.4 c -0.2 1.5 -0.7 2.9 -1.1 4.3 c -0.4 1.4 -0.8 2.8 -1.3 4.1 c -1 2.6 -2 5.4 -3.3 7.8 c -4.8 10.1 -11 18.9 -17.7 27 c -6.7 8.1 -14.1 15.3 -21.8 22.1 c -7.7 6.8 -15.6 13.2 -23.8 19.2 c -8.2 5.9 -16.6 11.5 -25.2 16.9 c -8.6 5.3 -17.3 10.3 -26.2 15 c -4.4 2.4 -8.9 4.6 -13.4 6.9 c -4.5 2.2 -9 4.4 -13.6 6.5 c -18.2 8.3 -36.8 15.8 -55.7 22.3 c -18.9 6.4 -38.1 12 -57.7 16.5 c -19.5 4.4 -39.3 8 -59.4 10 c -20.1 2 -40.4 2.8 -60.9 1.2 c -10.3 -0.9 -20.6 -2.3 -30.9 -4.8 c -10.3 -2.5 -20.6 -6.1 -30.4 -11.9 c -2.5 -1.4 -4.8 -3.1 -7.2 -4.8 c -1.2 -0.9 -2.3 -1.9 -3.4 -2.9 l -1.7 -1.5 c -0.5 -0.5 -1.1 -1.1 -1.6 -1.7 c -4.3 -4.3 -7.9 -9.7 -10.2 -15.6 c -2.5 -5.9 -3.5 -12.3 -3.3 -18.5 c 0.1 -6.2 1.5 -12 3.4 -17.3 c 3.9 -10.7 9.8 -19.7 16.4 -27.8 c 6.6 -8.1 13.9 -15.2 21.6 -21.7 c 15.4 -13.1 32 -24 49.3 -33.6 c 8.7 -4.8 17.4 -9.2 26.4 -13.4 c 9 -4 18 -7.9 27.1 -11.4 c -8.4 5 -16.8 10 -25 15.3 c -8.2 5.2 -16.3 10.6 -24.1 16.4 c -15.6 11.4 -30.6 23.6 -43.8 37.2 c -6.6 6.8 -12.7 13.9 -17.9 21.5 c -5.2 7.5 -9.5 15.5 -11.6 23.4 c -2.2 7.9 -2 15.4 1.1 21.4 c 1.5 3 3.5 5.8 6.3 8.3 c 0.3 0.3 0.6 0.6 1 0.9 l 1.1 0.8 c 0.8 0.6 1.5 1.2 2.3 1.7 c 1.7 1 3.3 2.1 5.1 3 c 7.2 3.8 15.6 6.3 24.4 8 c 8.8 1.7 17.9 2.6 27.1 3 c 18.5 0.6 37.3 -0.5 56 -3 c 18.7 -2.4 37.4 -6 55.9 -10.6 c 18.5 -4.4 36.8 -9.9 54.8 -16.1 c 18.1 -6.1 35.8 -13.1 53.2 -20.9 c 17.4 -7.6 34.3 -16.4 50.7 -25.8 c 16.3 -9.5 32.1 -20 46.4 -31.8 c 7.2 -5.9 14 -12.1 20.1 -18.7 c 6.1 -6.6 11.6 -13.7 15.6 -21 c 4 -7.4 6.4 -15 6 -21.9 c -0.3 -6.9 -3.6 -13.3 -9.5 -18.6 c -2.9 -2.7 -6.3 -5.1 -10.1 -7.1 c -3.8 -2 -7.9 -3.8 -12.1 -5.4 c -8.5 -3.1 -17.7 -5.1 -27 -6.7 c -18.7 -3 -38 -3.5 -57.3 -3.1 c -9.7 0.2 -19.4 0.9 -29.1 1.8 C 315 245.7 305.3 246.9 295.6 248.1 z" stroke-linecap="round" />
</g>
		<g transform="matrix(1 0 0 1 -1.39 96.66)" id="Layer_1"  >
<linearGradient id="SVGID_SVGID_10__164" gradientUnits="userSpaceOnUse" gradientTransform="matrix(1 0 0 1 0 0)"  x1="481.7089" y1="193.1829" x2="124.2065" y2="445.2899">
<stop offset="0%" style="stop-color:#D9D9D9;stop-opacity: 1"/>
<stop offset="100%" style="stop-color:#D9D9D9;stop-opacity: 0"/>
</linearGradient>
<path style="stroke: none; stroke-width: 1; stroke-dasharray: none; stroke-linecap: butt; stroke-dashoffset: 0; stroke-linejoin: miter; stroke-miterlimit: 4; fill: url(#SVGID_SVGID_10__164); fill-rule: nonzero; opacity: 0.47;"  transform=" translate(-254.61, -352.66)" d="M 54 383.2 c 5.1 -7.6 11.3 -14.7 17.9 -21.5 c 13.2 -13.6 28.2 -25.8 43.8 -37.2 c 7.8 -5.7 15.9 -11.1 24.1 -16.4 c 8.2 -5.3 16.6 -10.3 25 -15.3 c 0 0 -156.7 76.8 -133.3 135 s 162.5 43 249.2 12 S 500.8 333 477.4 276.1 c -22.3 -54.3 -148.7 -36.9 -178.3 -29 c -1.2 0.4 -2.4 0.7 -3.6 1.1 c 9.7 -1.2 19.4 -2.4 29.1 -3.2 c 9.7 -0.9 19.4 -1.5 29.1 -1.8 c 19.3 -0.5 38.7 0.1 57.3 3.1 c 9.3 1.5 18.4 3.6 27 6.7 c 4.3 1.5 8.3 3.3 12.1 5.4 c 3.8 2 7.2 4.5 10.1 7.1 c 5.9 5.3 9.2 11.7 9.5 18.6 c 0.4 6.9 -2 14.6 -6 21.9 c -4 7.4 -9.5 14.4 -15.6 21 c -6.1 6.6 -12.9 12.9 -20.1 18.7 c -14.4 11.7 -30.1 22.3 -46.4 31.8 c -16.4 9.4 -33.3 18.2 -50.7 25.8 c -17.4 7.7 -35.1 14.8 -53.2 20.9 c -18 6.2 -36.3 11.7 -54.8 16.1 c -18.5 4.6 -37.2 8.1 -55.9 10.6 c -18.7 2.5 -37.6 3.6 -56 3 c -9.2 -0.4 -18.4 -1.3 -27.1 -3 c -8.8 -1.6 -17.2 -4.2 -24.4 -8 c -1.9 -0.9 -3.5 -2 -5.1 -3 c -0.8 -0.5 -1.5 -1.2 -2.3 -1.7 l -1.1 -0.8 c -0.3 -0.3 -0.7 -0.6 -1 -0.9 c -2.8 -2.4 -4.8 -5.2 -6.3 -8.3 c -3 -6 -3.3 -13.5 -1.1 -21.4 C 44.6 398.7 48.9 390.7 54 383.2 z" stroke-linecap="round" />
</g>
		<g transform="matrix(1 0 0 1 28.8 173.12)" id="Layer_1"  >
<linearGradient id="SVGID_SVGID_11__165" gradientUnits="userSpaceOnUse" gradientTransform="matrix(1 -0.02 0.02 1 -5.12 5.77)"  x1="88.5288" y1="521.7884" x2="485.0305" y2="392.1503">
<stop offset="0%" style="stop-color:#7D3CD2;stop-opacity: 1"/>
<stop offset="99.95%" style="stop-color:#16005C;stop-opacity: 1"/>
</linearGradient>
<path style="stroke: none; stroke-width: 1; stroke-dasharray: none; stroke-linecap: butt; stroke-dashoffset: 0; stroke-linejoin: miter; stroke-miterlimit: 4; fill: url(#SVGID_SVGID_11__165); fill-rule: nonzero; opacity: 1;"  transform=" translate(-284.8, -429.12)" d="M 80.5 496.6 c 19.3 0.8 38.4 0.7 57.3 -0.1 c 18.9 -0.8 37.8 -2.3 56.4 -4.6 c 18.6 -2.4 37.1 -5.4 55.3 -9.5 c 18.2 -4 36.2 -8.9 53.7 -14.9 c 35.2 -11.9 69.1 -27.6 100.6 -47.6 c 15.8 -10 30.9 -21 45.2 -33.3 c 14.3 -12.2 28 -25.4 40.1 -40.4 c -3.6 9 -8.6 17.4 -13.9 25.6 c -5.3 8.2 -11.3 16 -17.6 23.4 c -12.7 15 -27 28.5 -42.5 40.7 c -31 24.3 -66.5 42.8 -103.8 55.5 c -37.3 12.9 -76.6 19.4 -115.6 20.5 c -19.6 0.5 -39.1 -0.4 -58.4 -2.8 c -9.7 -1.2 -19.3 -2.7 -28.7 -4.8 c -4.7 -1 -9.5 -2.1 -14.2 -3.3 C 89.7 499.6 85 498.3 80.5 496.6 z" stroke-linecap="round" />
</g>
		<g transform="matrix(1 0 0 1 28.7 168.41)" id="Layer_1"  >
<linearGradient id="SVGID_SVGID_12__166" gradientUnits="userSpaceOnUse" gradientTransform="matrix(1 0 0 1 0 0)"  x1="479.0836" y1="312.5114" x2="178.0733" y2="505.3858">
<stop offset="0%" style="stop-color:#D9D9D9;stop-opacity: 1"/>
<stop offset="100%" style="stop-color:#D9D9D9;stop-opacity: 0"/>
</linearGradient>
<path style="stroke: none; stroke-width: 1; stroke-dasharray: none; stroke-linecap: butt; stroke-dashoffset: 0; stroke-linejoin: miter; stroke-miterlimit: 4; fill: url(#SVGID_SVGID_12__166); fill-rule: nonzero; opacity: 0.47;"  transform=" translate(-284.7, -424.41)" d="M 294.6 484.2 c 123.3 -32.3 194.4 -138 194.4 -138 c -12.1 15 -25.8 28.2 -40.1 40.4 c -14.3 12.2 -29.5 23.3 -45.2 33.3 c -31.4 20 -65.4 35.7 -100.6 47.6 c -17.6 6 -35.5 10.9 -53.7 14.9 c -18.2 4.1 -36.7 7.1 -55.3 9.5 c -18.6 2.3 -37.4 3.9 -56.4 4.6 c -19 0.8 -38 1 -57.3 0.1 C 80.5 496.6 171.3 516.4 294.6 484.2 z" stroke-linecap="round" />
</g>
		<g transform="matrix(1 0 0 1 140.3 -236.3)" id="Layer_1"  >
<linearGradient id="SVGID_SVGID_13__167" gradientUnits="userSpaceOnUse" gradientTransform="matrix(1 0 0 1 0 0)"  x1="331.6019" y1="-56.3454" x2="457.2274" y2="91.3497">
<stop offset="0%" style="stop-color:#7D3CD2;stop-opacity: 1"/>
<stop offset="99.95%" style="stop-color:#16005C;stop-opacity: 1"/>
</linearGradient>
<path style="stroke: none; stroke-width: 1; stroke-dasharray: none; stroke-linecap: butt; stroke-dashoffset: 0; stroke-linejoin: miter; stroke-miterlimit: 4; fill: url(#SVGID_SVGID_13__167); fill-rule: nonzero; opacity: 1;"  transform=" translate(-396.3, -19.7)" d="M 396.3 0 c 0 0 -3.5 18 -22.3 19.7 c 18.7 1.7 22.3 19.7 22.3 19.7 s 3.5 -18 22.3 -19.7 C 399.8 18 396.3 0 396.3 0 z" stroke-linecap="round" />
</g>
		<g transform="matrix(1 0 0 1 88.6 -229.6)" id="Layer_1"  >
<linearGradient id="SVGID_SVGID_14__168" gradientUnits="userSpaceOnUse" gradientTransform="matrix(1 0 0 1 0 0)"  x1="298.3391" y1="-28.0534" x2="423.9652" y2="119.6424">
<stop offset="0%" style="stop-color:#7D3CD2;stop-opacity: 1"/>
<stop offset="99.95%" style="stop-color:#16005C;stop-opacity: 1"/>       
</linearGradient>
<path style="stroke: none; stroke-width: 1; stroke-dasharray: none; stroke-linecap: butt; stroke-dashoffset: 0; stroke-linejoin: miter; stroke-miterlimit: 4; fill: url(#SVGID_SVGID_14__168); fill-rule: nonzero; opacity: 1;"  transform=" translate(-344.6, -26.4)" d="M 344.6 13.4 c 0 0 -2.3 11.9 -14.7 13 c 12.3 1.1 14.7 13 14.7 13 s 2.3 -11.9 14.7 -13 C 347 25.3 344.6 13.4 344.6 13.4 z" stroke-linecap="round" />
</g>
		<g transform="matrix(1 0 0 1 118 -216.7)" id="Layer_1"  >
<linearGradient id="SVGID_SVGID_15__169" gradientUnits="userSpaceOnUse" gradientTransform="matrix(1 0 0 1 0 0)"  x1="308.9676" y1="-37.0947" x2="434.5947" y2="110.6023">
<stop offset="0%" style="stop-color:#7D3CD2;stop-opacity: 1"/>
<stop offset="99.95%" style="stop-color:#16005C;stop-opacity: 1"/>
</linearGradient>
<path style="stroke: none; stroke-width: 1; stroke-dasharray: none; stroke-linecap: butt; stroke-dashoffset: 0; stroke-linejoin: miter; stroke-miterlimit: 4; fill: url(#SVGID_SVGID_15__169); fill-rule: nonzero; opacity: 1;"  transform=" translate(-374, -39.3)" d="M 374 29.5 c 0 0 -1.8 9 -11.1 9.8 c 9.4 0.8 11.1 9.8 11.1 9.8 s 1.8 -9 11.1 -9.8 C 375.8 38.5 374 29.5 374 29.5 z" stroke-linecap="round" /> 
</g>
</g>
</g>
		<g transform="matrix(1 0 0 1 23.3 -15.42)" style="filter: url(#SVGID_13133);"  >
<filter id="SVGID_13133" y="-20%" height="140%" x="-20%" width="140%" >
	<feGaussianBlur in="SourceAlpha" stdDeviation="0"></feGaussianBlur>
	<feOffset dx="0" dy="0" result="oBlur" ></feOffset>
	<feFlood flood-color="rgb(0,0,0)" flood-opacity="1"/>
	<feComposite in2="oBlur" operator="in" />
	<feMerge>
		<feMergeNode></feMergeNode>
		<feMergeNode in="SourceGraphic"></feMergeNode>
	</feMerge>
</filter>
		<text xml:space="preserve" font-family="El Messiri" font-size="37.5" font-style="normal" font-weight="700" style="stroke: rgb(0,0,0); stroke-width: 0; stroke-dasharray: none; stroke-linecap: butt; stroke-dashoffset: 0; stroke-linejoin: round; stroke-miterlimit: 4; fill: rgb(35,12,83); fill-rule: nonzero; opacity: 1; white-space: pre;" paint-order="stroke"  ><tspan x="-71.31" y="11.78" >Valentina</tspan></text>
</g>
		<g transform="matrix(1 0 0 1 48.3 26.36)" style="filter: url(#SVGID_13134);"  >
<linearGradient id="SVGID_13135" gradientUnits="userSpaceOnUse" gradientTransform="matrix(1 0 0 1 -96.1 -20.62)"  x1="0" y1="9.125" x2="0" y2="32.12">
<stop offset="0%" style="stop-color:rgb(35,12,83);stop-opacity: 1"/>
<stop offset="100%" style="stop-color:rgb(79,59,120);stop-opacity: 1"/>
</linearGradient>
<filter id="SVGID_13134" y="-20%" height="140%" x="-20%" width="140%" >
	<feGaussianBlur in="SourceAlpha" stdDeviation="0"></feGaussianBlur>
	<feOffset dx="0" dy="0" result="oBlur" ></feOffset>
	<feFlood flood-color="rgb(0,0,0)" flood-opacity="1"/>
	<feComposite in2="oBlur" operator="in" />
	<feMerge>
		<feMergeNode></feMergeNode>
		<feMergeNode in="SourceGraphic"></feMergeNode>
	</feMerge>
</filter>
		<text xml:space="preserve" font-family="Raleway" font-size="36.5" font-style="normal" font-weight="400" style="stroke: rgb(0,0,0); stroke-width: 0; stroke-dasharray: none; stroke-linecap: butt; stroke-dashoffset: 0; stroke-linejoin: round; stroke-miterlimit: 4; fill: url(#SVGID_13135); fill-rule: nonzero; opacity: 1; white-space: pre;" paint-order="stroke"  ><tspan x="-96.1" y="11.47" style="white-space: pre; "> Coach-psy</tspan></text>
</g>
</g>
</g>
</svg>