<svg width="40" height="30" viewBox="0 0 40 30" fill="none" xmlns="http://www.w3.org/2000/svg">
<path d="M37.7778 0H2.22222C1 0 0 1.125 0 2.5V27.5C0 28.875 1 30 2.22222 30H37.7778C39 30 40 28.875 40 27.5V2.5C40 1.125 39 0 37.7778 0ZM38.8889 2.5V27.5C38.8889 27.625 38.8889 27.6875 38.8333 27.8125L27.4444 15L38.8333 2.1875C38.8889 2.3125 38.8889 2.375 38.8889 2.5ZM37.7778 1.25C37.8889 1.25 37.9444 1.25 38.0556 1.3125L21.9444 19.4375C20.8889 20.625 19.1111 20.625 18 19.4375L1.88889 1.3125C2 1.3125 2.05556 1.25 2.16667 1.25H37.7778ZM1.16667 27.8125C1.16667 27.6875 1.11111 27.625 1.11111 27.5V2.5C1.11111 2.375 1.11111 2.3125 1.16667 2.1875L12.5556 15L1.16667 27.8125ZM2.22222 28.75C2.11111 28.75 2.05556 28.75 1.94444 28.6875L13.3333 15.875L17.2778 20.3125C18.0556 21.1875 19.0556 21.5625 20 21.5625C21 21.5625 22 21.125 22.7222 20.3125L26.6667 15.875L38.0556 28.6875C37.9444 28.75 37.8889 28.75 37.7778 28.75H2.22222Z" fill="#230C53"/>
</svg>
