<svg width="37" height="42" viewBox="0 0 37 42" fill="none" xmlns="http://www.w3.org/2000/svg">
<path d="M18.6246 26.0659C25.0722 26.0659 30.299 20.6785 30.299 14.0329C30.299 7.38732 25.0722 2 18.6246 2C12.177 2 6.9502 7.38732 6.9502 14.0329C6.9502 20.6785 12.177 26.0659 18.6246 26.0659Z" stroke="#230C53" stroke-width="2.2" stroke-linecap="round" stroke-linejoin="round"/>
<path fill-rule="evenodd" clip-rule="evenodd" d="M35.2238 37.7107C34.6483 31.7458 31.3583 26.3371 25.6797 24.5654C23.968 25.6542 20.8566 26.3209 18.625 26.3715C16.3933 26.3216 13.2819 25.6549 11.5702 24.5654C5.8916 26.3371 2.60165 31.7458 2.02607 37.7107C2.02607 37.7107 1.62644 40.0001 3.95622 40.0001H33.2937C35.6235 40.0001 35.2238 37.7107 35.2238 37.7107Z" stroke="#230C53" stroke-width="2.2" stroke-linecap="round" stroke-linejoin="round"/>
</svg>
