<svg width="50" height="50" viewBox="0 0 50 50" fill="none" xmlns="http://www.w3.org/2000/svg">
<path d="M46.6497 25.0014C46.6497 26.0401 46.5827 27.0732 46.4431 28.1007C46.4655 27.9499 46.4822 27.8047 46.5045 27.654C46.2309 29.6978 45.6893 31.697 44.8908 33.5957C44.9467 33.4617 45.0025 33.3277 45.0583 33.1936C44.6005 34.2826 44.0588 35.3324 43.439 36.3432C43.1319 36.8458 42.8081 37.3316 42.4619 37.8063C42.3893 37.9068 42.3167 38.0018 42.2441 38.1023C42.1994 38.1637 42.1548 38.2196 42.1101 38.2754C41.9314 38.5155 42.3781 37.9348 42.1939 38.1693C42.0152 38.3983 41.8309 38.6272 41.6411 38.8506C40.8873 39.7441 40.0664 40.5817 39.1842 41.3524C38.9832 41.5311 38.7766 41.7042 38.57 41.8717C38.4583 41.9667 38.3411 42.056 38.2294 42.1454C38.1345 42.2235 37.8943 42.3967 38.3355 42.0616C38.2573 42.1174 38.1791 42.1789 38.1009 42.2403C37.6487 42.5754 37.1908 42.8993 36.7162 43.2008C35.5994 43.9156 34.4156 44.5355 33.1928 45.0548C33.3268 44.999 33.4608 44.9431 33.5948 44.8873C31.6908 45.6858 29.6973 46.2275 27.6537 46.5012C27.8044 46.4788 27.9496 46.4621 28.1004 46.4397C26.04 46.7078 23.9572 46.7078 21.8968 46.4397C22.0476 46.4621 22.1927 46.4788 22.3435 46.5012C20.2998 46.2275 18.3008 45.6858 16.4023 44.8873C16.5364 44.9431 16.6704 44.999 16.8044 45.0548C15.7155 44.5969 14.6658 44.0552 13.6551 43.4353C13.1526 43.1282 12.6668 42.8043 12.1922 42.4581C12.0917 42.3855 11.9967 42.3129 11.8962 42.2403C11.8348 42.1956 11.779 42.1509 11.7231 42.1063C11.483 41.9276 12.0637 42.3743 11.8292 42.19C11.6003 42.0113 11.3714 41.8271 11.148 41.6372C10.2546 40.8833 9.41703 40.0624 8.64646 39.1801C8.46778 38.979 8.29469 38.7724 8.12717 38.5658C8.03225 38.4541 7.94291 38.3368 7.85357 38.2251C7.77539 38.1302 7.6023 37.8901 7.93732 38.3312C7.88149 38.2531 7.82006 38.1749 7.75864 38.0967C7.42361 37.6444 7.09976 37.1865 6.79823 36.7118C6.08351 35.5949 5.46371 34.411 4.94441 33.1881C5.00025 33.3221 5.05609 33.4561 5.11193 33.5901C4.31344 31.6859 3.77182 29.6922 3.49821 27.6484C3.52055 27.7992 3.5373 27.9443 3.55963 28.0951C3.29161 26.0345 3.29161 23.9515 3.55963 21.8909C3.5373 22.0417 3.52055 22.1869 3.49821 22.3376C3.77182 20.2938 4.31344 18.2946 5.11193 16.3959C5.05609 16.5299 5.00025 16.6639 4.94441 16.798C5.40228 15.709 5.94391 14.6592 6.56371 13.6484C6.87082 13.1458 7.19468 12.66 7.54087 12.1853C7.61346 12.0848 7.68605 11.9898 7.75864 11.8893C7.80331 11.8279 7.84798 11.772 7.89265 11.7162C8.07133 11.4761 7.62463 12.0568 7.8089 11.8223C7.98758 11.5933 8.17184 11.3644 8.36169 11.141C9.1155 10.2475 9.93632 9.40986 10.8186 8.63922C11.0196 8.46052 11.2262 8.2874 11.4328 8.11987C11.5445 8.02494 11.6617 7.93559 11.7734 7.84624C11.8683 7.76806 12.1084 7.59494 11.6673 7.93001C11.7455 7.87416 11.8236 7.81274 11.9018 7.75131C12.3541 7.41625 12.812 7.09235 13.2866 6.7908C14.4034 6.076 15.5871 5.45614 16.81 4.93679C16.676 4.99263 16.5419 5.04848 16.4079 5.10432C18.312 4.30576 20.3054 3.76408 22.3491 3.49044C22.1983 3.51278 22.0531 3.52953 21.9024 3.55187C23.9628 3.28382 26.0455 3.28382 28.106 3.55187C27.9552 3.52953 27.81 3.51278 27.6593 3.49044C29.7029 3.76408 31.7019 4.30576 33.6004 5.10432C33.4664 5.04848 33.3324 4.99263 33.1984 4.93679C34.2872 5.39471 35.337 5.93639 36.3476 6.55625C36.8502 6.86339 37.336 7.18729 37.8106 7.53352C37.9111 7.60611 38.006 7.67871 38.1065 7.75131C38.168 7.79598 38.2238 7.84066 38.2796 7.88533C38.5197 8.06403 37.939 7.61728 38.1735 7.80157C38.4025 7.98027 38.6314 8.16455 38.8548 8.35442C39.7482 9.10831 40.5857 9.92921 41.3563 10.8115C41.535 11.0126 41.7081 11.2192 41.8756 11.4258C41.9705 11.5375 42.0599 11.6548 42.1492 11.7665C42.2274 11.8614 42.4005 12.1015 42.0654 11.6604C42.1213 11.7385 42.1827 11.8167 42.2441 11.8949C42.5791 12.3472 42.903 12.8052 43.2045 13.2798C43.9193 14.3967 44.5391 15.5806 45.0583 16.8036C45.0025 16.6695 44.9467 16.5355 44.8908 16.4015C45.6893 18.3057 46.2309 20.2994 46.5045 22.3432C46.4822 22.1925 46.4655 22.0473 46.4431 21.8965C46.5827 22.9296 46.6497 23.9627 46.6497 25.0014C46.6497 25.8781 47.4203 26.7158 48.3249 26.6767C49.2294 26.6376 50 25.9396 50 25.0014C49.9888 19.8917 48.4142 14.782 45.4436 10.6161C42.4507 6.42223 38.2964 3.23915 33.4552 1.4689C28.6029 -0.301337 23.1476 -0.463283 18.1892 0.938391C13.3871 2.29539 8.98149 5.14341 5.80432 8.99662C4.11801 11.0405 2.79465 13.2687 1.79516 15.7146C0.817994 18.0991 0.265198 20.64 0.0697658 23.2032C-0.321099 28.3073 0.940837 33.5343 3.59314 37.9124C6.16726 42.1621 10.0368 45.6691 14.5709 47.7186C17.0389 48.8354 19.5963 49.5335 22.2821 49.8462C24.8953 50.1477 27.5532 49.997 30.1273 49.472C35.0187 48.478 39.5918 45.9148 43.037 42.3129C46.5157 38.6831 48.9112 33.981 49.6706 28.9998C49.8716 27.6707 50 26.3416 50 24.9958C50 24.1191 49.2294 23.2814 48.3249 23.3205C47.4147 23.3652 46.6497 24.0632 46.6497 25.0014Z" fill="#421F8B"/>
<path d="M26.6775 31.401C26.6775 31.2111 26.6942 31.0268 26.7165 30.8425C26.6942 30.9933 26.6775 31.1385 26.6551 31.2893C26.7054 30.9263 26.8003 30.5745 26.9399 30.2338C26.8841 30.3679 26.8282 30.5019 26.7724 30.6359C26.8729 30.3958 26.9957 30.1668 27.1353 29.949C27.1688 29.8932 27.2079 29.8429 27.247 29.7871C27.3419 29.6419 26.9566 30.1333 27.1521 29.9099C27.2358 29.815 27.3196 29.7145 27.4145 29.6251C27.5039 29.5302 27.6044 29.4464 27.6993 29.3627C27.8668 29.2175 27.5709 29.4688 27.5429 29.4799C27.5932 29.4576 27.6546 29.3962 27.7049 29.3683C27.9338 29.2119 28.1795 29.0834 28.4364 28.9718C28.3023 29.0276 28.1683 29.0834 28.0343 29.1393C28.7044 28.8657 29.3688 28.6032 29.9886 28.2235C30.5917 27.8493 31.1612 27.4026 31.6694 26.9111C32.7024 25.9004 33.4562 24.6718 33.9643 23.326C34.9359 20.7516 34.6232 17.7416 33.2607 15.3683C31.9765 13.129 29.7262 11.4202 27.2023 10.845C24.5891 10.2475 21.7023 10.7333 19.5246 12.3304C18.3241 13.2072 17.2967 14.3017 16.6043 15.6252C15.8784 17.0101 15.4931 18.5458 15.482 20.1094C15.4764 20.9861 16.2581 21.8238 17.1571 21.7847C18.0673 21.7456 18.8267 21.0476 18.8322 20.1094C18.8322 19.7464 18.8602 19.3834 18.9048 19.026C18.8825 19.1768 18.8657 19.322 18.8434 19.4728C18.9383 18.8027 19.117 18.1493 19.3794 17.5183C19.3236 17.6523 19.2678 17.7863 19.2119 17.9203C19.4018 17.468 19.6363 17.0324 19.9043 16.6248C19.9713 16.5243 20.0439 16.4237 20.1165 16.3232C20.1947 16.2171 20.3845 16.0217 20.0328 16.4293C20.0663 16.3902 20.0942 16.3511 20.1221 16.3176C20.284 16.1222 20.4571 15.9323 20.6358 15.748C20.8089 15.5749 20.9876 15.413 21.1774 15.2566C21.1998 15.2399 21.3003 15.1393 21.317 15.1393C21.2947 15.1393 20.9373 15.4186 21.183 15.2454C21.2835 15.1728 21.3784 15.1002 21.4845 15.0332C21.9033 14.754 22.35 14.5139 22.8135 14.3184C22.6795 14.3743 22.5455 14.4301 22.4114 14.486C23.0368 14.2235 23.6901 14.0448 24.3658 13.9499C24.215 13.9722 24.0698 13.989 23.9191 14.0113C24.6394 13.9164 25.3653 13.9164 26.0856 14.0113C25.9348 13.989 25.7896 13.9722 25.6389 13.9499C26.3089 14.0448 26.9622 14.2235 27.5932 14.486C27.4592 14.4301 27.3252 14.3743 27.1912 14.3184C27.6435 14.5139 28.079 14.7429 28.4866 15.0165C28.5871 15.0835 28.6876 15.1561 28.7881 15.2287C28.8942 15.3069 29.0897 15.4967 28.682 15.1449C28.7211 15.1784 28.7602 15.2064 28.7937 15.2343C28.9891 15.3962 29.179 15.5693 29.3633 15.748C29.5364 15.9211 29.6983 16.0998 29.8546 16.2897C29.8714 16.3121 29.9719 16.407 29.9719 16.4293C29.9719 16.407 29.6927 16.0496 29.8658 16.2953C29.9384 16.3958 30.011 16.4908 30.078 16.5969C30.3572 17.0157 30.5973 17.4624 30.7927 17.9259C30.7369 17.7919 30.681 17.6579 30.6252 17.5239C30.8876 18.1493 31.0663 18.8027 31.1612 19.4784C31.1389 19.3276 31.1222 19.1824 31.0998 19.0316C31.1947 19.7464 31.1947 20.4668 31.0998 21.1816C31.1222 21.0308 31.1389 20.8856 31.1612 20.7349C31.0663 21.4217 30.8821 22.0918 30.614 22.7285C30.6699 22.5944 30.7257 22.4604 30.7815 22.3264C30.5861 22.7787 30.3516 23.2199 30.078 23.6275C30.011 23.7225 29.944 23.8174 29.877 23.9123C29.7095 24.1357 29.9496 23.8509 29.9719 23.7895C29.9496 23.8453 29.8881 23.8956 29.849 23.9403C29.6927 24.1301 29.5252 24.3088 29.3521 24.482C29.1902 24.6439 29.0171 24.8003 28.8384 24.951C28.7881 24.9901 28.7379 25.0348 28.6876 25.0739C28.5369 25.1967 29.0282 24.8226 28.8105 24.979C28.7155 25.046 28.6206 25.113 28.5257 25.18C28.1013 25.4648 27.6546 25.7049 27.1856 25.9004C27.3196 25.8445 27.4536 25.7887 27.5876 25.7328C27.0237 25.9674 26.4485 26.1628 25.946 26.5147C25.3374 26.9391 24.8627 27.4081 24.4216 28.0001C23.6957 28.9662 23.3384 30.1947 23.3272 31.401C23.3216 32.2777 24.1033 33.1153 25.0023 33.0763C25.9181 33.0316 26.6663 32.3391 26.6775 31.401Z" fill="#421F8B"/>
<path d="M26.6762 37.7448C26.6762 37.5718 26.6762 37.3987 26.6762 37.2256C26.6762 36.7958 26.4919 36.3435 26.1848 36.0421C26.034 35.8801 25.8554 35.7629 25.6432 35.6959C25.4422 35.5898 25.23 35.5452 24.9954 35.5508C24.5599 35.5675 24.1132 35.7127 23.8117 36.0421C23.5102 36.3714 23.3203 36.7734 23.3203 37.2256C23.3203 37.3987 23.3203 37.5718 23.3203 37.7448C23.3203 38.1747 23.5046 38.627 23.8117 38.9284C23.9624 39.0903 24.1411 39.2076 24.3533 39.2746C24.5543 39.3806 24.7665 39.4253 25.001 39.4197C25.4366 39.403 25.8833 39.2578 26.1848 38.9284C26.4863 38.6046 26.6762 38.2027 26.6762 37.7448Z" fill="#421F8B"/>
</svg>
