<svg width="25" height="34" viewBox="0 0 25 34" fill="none" xmlns="http://www.w3.org/2000/svg">
<path d="M0.694443 11.4391H2.97166L8.11637 27.5021C7.03165 27.8958 6.24998 28.9687 6.24998 30.2299C6.24998 31.824 7.49609 33.1208 9.02776 33.1208C10.5594 33.1208 11.8055 31.824 11.8055 30.2299C11.8055 29.7032 11.6672 29.2103 11.4297 28.7845H18.4313C18.1938 29.2103 18.0555 29.7032 18.0555 30.2299C18.0555 31.824 19.3016 33.1208 20.8333 33.1208C22.3649 33.1208 23.6111 31.824 23.6111 30.2299C23.6111 28.6359 22.3649 27.3391 20.8333 27.3391H9.52831L8.60248 24.4482H21.5277C21.8266 24.4482 22.0919 24.2493 22.1866 23.9541L24.9644 15.2814C25.0349 15.0608 24.9994 14.8186 24.8691 14.6301C24.7383 14.4419 24.5288 14.33 24.3055 14.33H5.36165L4.1311 10.4877C4.03638 10.1925 3.7711 9.99365 3.47221 9.99365H0.694443C0.310833 9.99365 0 10.3171 0 10.7164C0 11.1156 0.310833 11.4391 0.694443 11.4391ZM20.8333 28.7845C21.5991 28.7845 22.2222 29.4329 22.2222 30.2299C22.2222 31.027 21.5991 31.6754 20.8333 31.6754C20.0675 31.6754 19.4444 31.027 19.4444 30.2299C19.4444 29.4329 20.0675 28.7845 20.8333 28.7845ZM9.02776 28.7845C9.79359 28.7845 10.4166 29.4329 10.4166 30.2299C10.4166 31.027 9.79359 31.6754 9.02776 31.6754C8.26192 31.6754 7.63887 31.027 7.63887 30.2299C7.63887 29.4329 8.26192 28.7845 9.02776 28.7845ZM23.3419 15.7755L21.0272 23.0027H8.13942L5.82471 15.7755H23.3419Z" fill="#230C53"/>
<path d="M13.2929 12.3305C13.6834 12.721 14.3166 12.721 14.7071 12.3305L21.0711 5.96651C21.4616 5.57598 21.4616 4.94282 21.0711 4.55229C20.6805 4.16177 20.0474 4.16177 19.6569 4.55229L14 10.2091L8.34315 4.55229C7.95262 4.16177 7.31946 4.16177 6.92893 4.55229C6.53841 4.94282 6.53841 5.57598 6.92893 5.96651L13.2929 12.3305ZM13 0V11.6234H15V0L13 0Z" fill="#230C53"/>
</svg>
