<?xml version="1.0" encoding="UTF-8"?>
<!DOCTYPE svg PUBLIC "-//W3C//DTD SVG 1.1//EN" "http://www.w3.org/Graphics/SVG/1.1/DTD/svg11.dtd">
<svg xmlns="http://www.w3.org/2000/svg" xmlns:xlink="http://www.w3.org/1999/xlink"><defs>
<linearGradient id="paint0_linear" x1="133.426" y1="37.2515" x2="133.426" y2="66.4485" gradientUnits="userSpaceOnUse">
<stop offset="0.499451" stop-color="white" stop-opacity="0"/>
<stop offset="1" stop-color="#22296A"/>
</linearGradient>
<linearGradient id="paint1_linear" x1="21.6887" y1="13.1549" x2="40.0634" y2="54.3585" gradientUnits="userSpaceOnUse">
<stop stop-color="#7D3CD2"/>
<stop offset="0.9995" stop-color="#16005C"/>
</linearGradient>
<linearGradient id="paint2_linear" x1="21.6501" y1="15.3768" x2="32.6634" y2="22.2314" gradientUnits="userSpaceOnUse">
<stop stop-color="#FFFF00"/>
<stop offset="1" stop-color="#C64AD1"/>
</linearGradient>
<linearGradient id="paint3_linear" x1="36.2787" y1="-1.32617" x2="52.5677" y2="19.2401" gradientUnits="userSpaceOnUse">
<stop stop-color="#7D3CD2"/>
<stop offset="0.9995" stop-color="#16005C"/>
</linearGradient>
<linearGradient id="paint4_linear" x1="26.0906" y1="16.7771" x2="39.2579" y2="55.3873" gradientUnits="userSpaceOnUse">
<stop stop-color="#FFFF00"/>
<stop offset="1" stop-color="#C64AD1"/>
</linearGradient>
<linearGradient id="paint5_linear" x1="24.5929" y1="14.7756" x2="29.5664" y2="25.7063" gradientUnits="userSpaceOnUse">
<stop stop-color="#7D3CD2"/>
<stop offset="0.9995" stop-color="#16005C"/>
</linearGradient>
<linearGradient id="paint6_linear" x1="19.9652" y1="56.2459" x2="19.7364" y2="24.5394" gradientUnits="userSpaceOnUse">
<stop/>
<stop offset="0.9912" stop-opacity="0"/>
</linearGradient>
<linearGradient id="paint7_linear" x1="30.2993" y1="55.139" x2="29.4952" y2="26.9656" gradientUnits="userSpaceOnUse">
<stop/>
<stop offset="0.9912" stop-opacity="0"/>
</linearGradient>
<linearGradient id="paint8_linear" x1="33.3507" y1="33.194" x2="36.5109" y2="65.0318" gradientUnits="userSpaceOnUse">
<stop stop-color="#FFFF00"/>
<stop offset="1" stop-color="#C64AD1"/>
</linearGradient>
<linearGradient id="paint9_linear" x1="18.9243" y1="32.8713" x2="45.3646" y2="61.813" gradientUnits="userSpaceOnUse">
<stop stop-color="#7D3CD2"/>
<stop offset="0.9995" stop-color="#16005C"/>
</linearGradient>
<linearGradient id="paint10_linear" x1="65.1526" y1="25.3991" x2="17.1203" y2="61.775" gradientUnits="userSpaceOnUse">
<stop stop-color="#D9D9D9"/>
<stop offset="1" stop-color="#D9D9D9" stop-opacity="0"/>
</linearGradient>
<linearGradient id="paint11_linear" x1="10.3882" y1="69.1283" x2="65.0951" y2="48.6102" gradientUnits="userSpaceOnUse">
<stop stop-color="#7D3CD2"/>
<stop offset="0.9995" stop-color="#16005C"/>
</linearGradient>
<linearGradient id="paint12_linear" x1="64.7824" y1="41.0873" x2="24.0964" y2="69.0844" gradientUnits="userSpaceOnUse">
<stop stop-color="#D9D9D9"/>
<stop offset="1" stop-color="#D9D9D9" stop-opacity="0"/>
</linearGradient>
<linearGradient id="paint13_linear" x1="43.9584" y1="-7.40813" x2="60.2473" y2="13.158" gradientUnits="userSpaceOnUse">
<stop stop-color="#7D3CD2"/>
<stop offset="0.9995" stop-color="#16005C"/>
</linearGradient>
<linearGradient id="paint14_linear" x1="39.2615" y1="-3.68846" x2="55.5505" y2="16.8778" gradientUnits="userSpaceOnUse">
<stop stop-color="#7D3CD2"/>
<stop offset="0.9995" stop-color="#16005C"/>
</linearGradient>
<linearGradient id="paint15_linear" x1="40.763" y1="-4.87775" x2="57.0521" y2="15.6887" gradientUnits="userSpaceOnUse">
<stop stop-color="#7D3CD2"/>
<stop offset="0.9995" stop-color="#16005C"/>
</linearGradient>
</defs><symbol id="logo" viewBox="0 0 220 68">
<path d="M68.6336 18.7371C68.1336 17.5771 67.6636 16.7871 67.2236 16.3671C66.7836 15.9271 66.1536 15.6671 65.3336 15.5871V14.9871C65.4336 14.9871 65.5836 14.9771 65.7836 14.9571C65.9636 14.9371 66.1536 14.9271 66.3536 14.9271C67.3536 14.9271 68.3136 15.1871 69.2336 15.7071C70.1536 16.2071 70.9336 17.2171 71.5736 18.7371L76.7036 30.8271L83.3036 15.2271H84.7436L76.1336 35.3271H75.5936L68.6336 18.7371ZM88.9502 35.3271C88.3102 35.3271 87.6602 35.1971 87.0002 34.9371C86.3402 34.6571 85.7702 34.2071 85.2902 33.5871C84.8302 32.9671 84.6002 32.1471 84.6002 31.1271C84.6002 29.6071 85.3002 28.5271 86.7002 27.8871C88.1202 27.2471 89.9702 26.9271 92.2502 26.9271H93.1502C93.1502 24.9671 92.8802 23.6271 92.3402 22.9071C91.8002 22.1871 91.0202 21.8271 90.0002 21.8271C89.1002 21.8271 88.3802 22.0171 87.8402 22.3971C87.3002 22.7771 86.9202 23.4371 86.7002 24.3771H85.3502C85.3502 23.6971 85.3902 23.1671 85.4702 22.7871C85.5502 22.3871 85.7602 22.0171 86.1002 21.6771C86.4602 21.3171 87.0502 21.0571 87.8702 20.8971C88.7102 20.7171 89.6202 20.6271 90.6002 20.6271C92.2202 20.6271 93.5002 21.0671 94.4402 21.9471C95.3802 22.8071 95.8502 24.4671 95.8502 26.9271V35.0271H94.3502L93.3002 33.6771H93.1502C92.7902 34.1371 92.2602 34.5271 91.5602 34.8471C90.8602 35.1671 89.9902 35.3271 88.9502 35.3271ZM90.3002 33.9771C90.9602 33.9771 91.5102 33.8171 91.9502 33.4971C92.3902 33.1771 92.7902 32.7371 93.1502 32.1771V28.1271H92.2502C90.7702 28.1271 89.6002 28.4071 88.7402 28.9671C87.8802 29.5071 87.4502 30.2271 87.4502 31.1271C87.4502 32.0471 87.7202 32.7571 88.2602 33.2571C88.8202 33.7371 89.5002 33.9771 90.3002 33.9771ZM100.154 18.8271C100.154 17.8071 100.014 17.0571 99.7335 16.5771C99.4535 16.0771 98.8935 15.8271 98.0535 15.8271H97.4535V15.2271H100.154C100.894 15.2271 101.444 15.3271 101.804 15.5271C102.184 15.7071 102.454 16.0471 102.614 16.5471C102.774 17.0471 102.854 17.8071 102.854 18.8271V35.0271H100.154V18.8271ZM112.789 35.3271C111.429 35.3271 110.279 35.0071 109.339 34.3671C108.399 33.7071 107.689 32.8271 107.209 31.7271C106.729 30.6071 106.489 29.3571 106.489 27.9771C106.489 26.6171 106.729 25.3771 107.209 24.2571C107.689 23.1371 108.379 22.2571 109.279 21.6171C110.199 20.9571 111.269 20.6271 112.489 20.6271C114.509 20.6271 116.009 21.1971 116.989 22.3371C117.989 23.4571 118.489 25.0871 118.489 27.2271L118.429 28.4271H109.339C109.339 30.1071 109.699 31.4771 110.419 32.5371C111.139 33.5971 112.129 34.1271 113.389 34.1271C114.329 34.1271 115.119 33.9271 115.759 33.5271C116.419 33.1271 117.029 32.5271 117.589 31.7271L118.189 32.1771C117.529 33.2771 116.759 34.0771 115.879 34.5771C114.999 35.0771 113.969 35.3271 112.789 35.3271ZM115.639 27.2271C115.639 25.4671 115.379 24.1271 114.859 23.2071C114.339 22.2871 113.549 21.8271 112.489 21.8271C111.889 21.8271 111.349 22.0671 110.869 22.5471C110.389 23.0071 110.009 23.6471 109.729 24.4671C109.469 25.2871 109.339 26.2071 109.339 27.2271H115.639ZM122.398 24.5271C122.398 23.5071 122.258 22.7571 121.978 22.2771C121.698 21.7771 121.138 21.5271 120.298 21.5271H119.698V20.9271H122.398C123.138 20.9271 123.698 21.0271 124.078 21.2271C124.478 21.4271 124.768 21.7271 124.948 22.1271C125.448 21.7271 126.038 21.3771 126.718 21.0771C127.418 20.7771 128.178 20.6271 128.998 20.6271C130.498 20.6271 131.718 21.0271 132.658 21.8271C133.618 22.6271 134.098 24.0271 134.098 26.0271V35.0271H131.398V26.0271C131.398 24.6271 131.078 23.6071 130.438 22.9671C129.818 22.3071 129.038 21.9771 128.098 21.9771C127.038 21.9771 126.038 22.5071 125.098 23.5671V35.0271H122.398V24.5271ZM142.436 35.3271C141.316 35.3271 140.436 35.0071 139.796 34.3671C139.156 33.7271 138.836 32.7471 138.836 31.4271V22.1271H136.736V20.9271H138.836V18.2271L140.336 16.4271H141.536V20.9271H145.136V22.1271H141.536V31.4271C141.536 33.2271 142.236 34.1271 143.636 34.1271C144.116 34.1271 144.516 34.0771 144.836 33.9771C145.176 33.8771 145.526 33.7271 145.886 33.5271L146.186 34.1271C145.726 34.4671 145.216 34.7571 144.656 34.9971C144.096 35.2171 143.356 35.3271 142.436 35.3271ZM149.993 19.1271C149.533 19.1271 149.133 18.9371 148.793 18.5571C148.473 18.1771 148.313 17.7271 148.313 17.2071C148.313 16.7871 148.433 16.4571 148.673 16.2171C148.933 15.9771 149.273 15.8571 149.693 15.8571C150.153 15.8571 150.543 16.0471 150.863 16.4271C151.203 16.8071 151.373 17.2571 151.373 17.7771C151.373 18.1971 151.243 18.5271 150.983 18.7671C150.743 19.0071 150.413 19.1271 149.993 19.1271ZM148.853 24.5271C148.853 23.5071 148.713 22.7571 148.433 22.2771C148.153 21.7771 147.593 21.5271 146.753 21.5271H146.153V20.9271H148.853C149.593 20.9271 150.143 21.0271 150.503 21.2271C150.883 21.4071 151.153 21.7471 151.313 22.2471C151.473 22.7471 151.553 23.5071 151.553 24.5271V35.0271H148.853V24.5271ZM156.235 24.5271C156.235 23.5071 156.095 22.7571 155.815 22.2771C155.535 21.7771 154.975 21.5271 154.135 21.5271H153.535V20.9271H156.235C156.975 20.9271 157.535 21.0271 157.915 21.2271C158.315 21.4271 158.605 21.7271 158.785 22.1271C159.285 21.7271 159.875 21.3771 160.555 21.0771C161.255 20.7771 162.015 20.6271 162.835 20.6271C164.335 20.6271 165.555 21.0271 166.495 21.8271C167.455 22.6271 167.935 24.0271 167.935 26.0271V35.0271H165.235V26.0271C165.235 24.6271 164.915 23.6071 164.275 22.9671C163.655 22.3071 162.875 21.9771 161.935 21.9771C160.875 21.9771 159.875 22.5071 158.935 23.5671V35.0271H156.235V24.5271ZM175.464 35.3271C174.824 35.3271 174.174 35.1971 173.514 34.9371C172.854 34.6571 172.284 34.2071 171.804 33.5871C171.344 32.9671 171.114 32.1471 171.114 31.1271C171.114 29.6071 171.814 28.5271 173.214 27.8871C174.634 27.2471 176.484 26.9271 178.764 26.9271H179.664C179.664 24.9671 179.394 23.6271 178.854 22.9071C178.314 22.1871 177.534 21.8271 176.514 21.8271C175.614 21.8271 174.894 22.0171 174.354 22.3971C173.814 22.7771 173.434 23.4371 173.214 24.3771H171.864C171.864 23.6971 171.904 23.1671 171.984 22.7871C172.064 22.3871 172.274 22.0171 172.614 21.6771C172.974 21.3171 173.564 21.0571 174.384 20.8971C175.224 20.7171 176.134 20.6271 177.114 20.6271C178.734 20.6271 180.014 21.0671 180.954 21.9471C181.894 22.8071 182.364 24.4671 182.364 26.9271V35.0271H180.864L179.814 33.6771H179.664C179.304 34.1371 178.774 34.5271 178.074 34.8471C177.374 35.1671 176.504 35.3271 175.464 35.3271ZM176.814 33.9771C177.474 33.9771 178.024 33.8171 178.464 33.4971C178.904 33.1771 179.304 32.7371 179.664 32.1771V28.1271H178.764C177.284 28.1271 176.114 28.4071 175.254 28.9671C174.394 29.5071 173.964 30.2271 173.964 31.1271C173.964 32.0471 174.234 32.7571 174.774 33.2571C175.334 33.7371 176.014 33.9771 176.814 33.9771Z" fill="#230C53"/>
<path d="M73.6257 51.2515C73.6257 50.1848 73.809 49.1265 74.1757 48.0765C74.559 47.0265 75.109 46.0765 75.8257 45.2265C76.5424 44.3598 77.4257 43.6765 78.4757 43.1765C79.5257 42.6598 80.7174 42.4015 82.0507 42.4015C83.6174 42.4015 84.9674 42.7681 86.1007 43.5015C87.234 44.2181 88.0674 45.1431 88.6007 46.2765L87.2257 47.1265C86.8424 46.3431 86.359 45.7265 85.7757 45.2765C85.1924 44.8098 84.5674 44.4765 83.9007 44.2765C83.2507 44.0765 82.6007 43.9765 81.9507 43.9765C80.884 43.9765 79.9424 44.1931 79.1257 44.6265C78.309 45.0431 77.6174 45.6098 77.0507 46.3265C76.5007 47.0431 76.084 47.8348 75.8007 48.7015C75.5174 49.5681 75.3757 50.4515 75.3757 51.3515C75.3757 52.3348 75.5424 53.2765 75.8757 54.1765C76.209 55.0598 76.6757 55.8515 77.2757 56.5515C77.8757 57.2515 78.5757 57.8098 79.3757 58.2265C80.1924 58.6265 81.0757 58.8265 82.0257 58.8265C82.6924 58.8265 83.3757 58.7098 84.0757 58.4765C84.7757 58.2431 85.4257 57.8848 86.0257 57.4015C86.6257 56.9181 87.1174 56.2931 87.5007 55.5265L88.9507 56.2765C88.5674 57.1598 87.9924 57.9098 87.2257 58.5265C86.4757 59.1431 85.6257 59.6098 84.6757 59.9265C83.7424 60.2431 82.8257 60.4015 81.9257 60.4015C80.709 60.4015 79.5924 60.1431 78.5757 59.6265C77.559 59.0931 76.6757 58.3931 75.9257 57.5265C75.1924 56.6431 74.6257 55.6598 74.2257 54.5765C73.8257 53.4765 73.6257 52.3681 73.6257 51.2515ZM97.1394 60.5015C95.8894 60.5015 94.7727 60.1931 93.7894 59.5765C92.8227 58.9598 92.0644 58.1431 91.5144 57.1265C90.9644 56.0931 90.6894 54.9765 90.6894 53.7765C90.6894 52.5598 90.9644 51.4431 91.5144 50.4265C92.081 49.3931 92.8477 48.5681 93.8144 47.9515C94.7977 47.3181 95.906 47.0015 97.1394 47.0015C98.3894 47.0015 99.4977 47.3181 100.464 47.9515C101.448 48.5681 102.214 49.3931 102.764 50.4265C103.331 51.4431 103.614 52.5598 103.614 53.7765C103.614 54.9765 103.339 56.0931 102.789 57.1265C102.239 58.1431 101.473 58.9598 100.489 59.5765C99.5227 60.1931 98.406 60.5015 97.1394 60.5015ZM92.4144 53.8015C92.4144 54.7681 92.6227 55.6515 93.0394 56.4515C93.4727 57.2348 94.0477 57.8598 94.7644 58.3265C95.481 58.7765 96.2727 59.0015 97.1394 59.0015C98.006 59.0015 98.7977 58.7681 99.5144 58.3015C100.231 57.8348 100.806 57.2015 101.239 56.4015C101.673 55.6015 101.889 54.7181 101.889 53.7515C101.889 52.7848 101.673 51.9015 101.239 51.1015C100.806 50.3015 100.231 49.6681 99.5144 49.2015C98.7977 48.7348 98.006 48.5015 97.1394 48.5015C96.2894 48.5015 95.506 48.7431 94.7894 49.2265C94.0727 49.6931 93.4977 50.3265 93.0644 51.1265C92.631 51.9265 92.4144 52.8181 92.4144 53.8015ZM105.408 56.5015C105.408 55.7015 105.641 55.0098 106.108 54.4265C106.574 53.8265 107.216 53.3598 108.033 53.0265C108.866 52.6931 109.824 52.5265 110.908 52.5265C111.541 52.5265 112.199 52.5848 112.883 52.7015C113.566 52.8015 114.174 52.9431 114.708 53.1265V52.0265C114.708 50.9265 114.383 50.0515 113.733 49.4015C113.083 48.7515 112.183 48.4265 111.033 48.4265C110.349 48.4265 109.666 48.5598 108.983 48.8265C108.299 49.0765 107.591 49.4515 106.858 49.9515L106.208 48.7515C107.058 48.1681 107.891 47.7348 108.708 47.4515C109.524 47.1515 110.358 47.0015 111.208 47.0015C112.808 47.0015 114.074 47.4598 115.008 48.3765C115.941 49.2931 116.408 50.5598 116.408 52.1765V58.2015C116.408 58.6515 116.616 58.8848 117.033 58.9015V60.2515C116.666 60.3015 116.408 60.3181 116.258 60.3015C115.841 60.2848 115.524 60.1515 115.308 59.9015C115.091 59.6515 114.974 59.3848 114.958 59.1015L114.933 58.1515C114.349 58.9015 113.591 59.4848 112.658 59.9015C111.724 60.3015 110.774 60.5015 109.808 60.5015C108.958 60.5015 108.199 60.3265 107.533 59.9765C106.866 59.6098 106.341 59.1265 105.958 58.5265C105.591 57.9098 105.408 57.2348 105.408 56.5015ZM114.133 57.5015C114.516 57.0515 114.708 56.6348 114.708 56.2515V54.3515C113.558 53.9015 112.358 53.6765 111.108 53.6765C109.891 53.6765 108.908 53.9181 108.158 54.4015C107.408 54.8848 107.033 55.5431 107.033 56.3765C107.033 57.0931 107.308 57.7431 107.858 58.3265C108.424 58.9098 109.208 59.2015 110.208 59.2015C111.024 59.2015 111.783 59.0431 112.483 58.7265C113.199 58.4098 113.749 58.0015 114.133 57.5015ZM125.731 60.5015C124.464 60.5015 123.339 60.1931 122.356 59.5765C121.372 58.9431 120.597 58.1181 120.031 57.1015C119.464 56.0681 119.181 54.9348 119.181 53.7015C119.181 52.4681 119.456 51.3515 120.006 50.3515C120.556 49.3348 121.322 48.5265 122.306 47.9265C123.289 47.3098 124.422 47.0015 125.706 47.0015C126.922 47.0015 127.989 47.2848 128.906 47.8515C129.839 48.4015 130.539 49.1515 131.006 50.1015L129.356 50.6265C128.989 49.9598 128.472 49.4431 127.806 49.0765C127.156 48.6931 126.431 48.5015 125.631 48.5015C124.747 48.5015 123.947 48.7265 123.231 49.1765C122.531 49.6265 121.964 50.2515 121.531 51.0515C121.114 51.8348 120.906 52.7181 120.906 53.7015C120.906 54.6848 121.122 55.5765 121.556 56.3765C121.989 57.1765 122.564 57.8181 123.281 58.3015C123.997 58.7681 124.789 59.0015 125.656 59.0015C126.222 59.0015 126.772 58.9015 127.306 58.7015C127.839 58.5015 128.297 58.2348 128.681 57.9015C129.064 57.5515 129.322 57.1765 129.456 56.7765L131.131 57.2765C130.897 57.8931 130.514 58.4515 129.981 58.9515C129.447 59.4348 128.814 59.8181 128.081 60.1015C127.347 60.3681 126.564 60.5015 125.731 60.5015ZM144.751 60.2515H143.051V52.9765C143.051 50.0265 142.051 48.5515 140.051 48.5515C139.401 48.5515 138.768 48.7181 138.151 49.0515C137.535 49.3681 136.985 49.8098 136.501 50.3765C136.035 50.9265 135.701 51.5598 135.501 52.2765V60.2515H133.801V42.0015H135.501V50.1765C136.018 49.2098 136.735 48.4431 137.651 47.8765C138.585 47.2931 139.576 47.0015 140.626 47.0015C141.626 47.0015 142.426 47.2431 143.026 47.7265C143.626 48.1931 144.06 48.8515 144.326 49.7015C144.61 50.5348 144.751 51.5098 144.751 52.6265V60.2515ZM148.126 54.2265V52.6515H155.426V54.2265H148.126ZM165.573 60.5015C164.49 60.5015 163.515 60.2181 162.648 59.6515C161.798 59.0848 161.123 58.3848 160.623 57.5515V65.5765H158.923V47.2265H160.448V49.7515C160.965 48.9348 161.648 48.2765 162.498 47.7765C163.365 47.2598 164.298 47.0015 165.298 47.0015C166.198 47.0015 167.023 47.1931 167.773 47.5765C168.523 47.9431 169.173 48.4431 169.723 49.0765C170.29 49.7098 170.723 50.4348 171.023 51.2515C171.323 52.0515 171.473 52.8848 171.473 53.7515C171.473 54.9681 171.223 56.0931 170.723 57.1265C170.24 58.1431 169.548 58.9598 168.648 59.5765C167.765 60.1931 166.74 60.5015 165.573 60.5015ZM165.098 59.0015C166.048 59.0015 166.865 58.7515 167.548 58.2515C168.248 57.7348 168.79 57.0765 169.173 56.2765C169.557 55.4765 169.748 54.6348 169.748 53.7515C169.748 52.8181 169.532 51.9515 169.098 51.1515C168.665 50.3515 168.082 49.7098 167.348 49.2265C166.632 48.7431 165.815 48.5015 164.898 48.5015C164.332 48.5015 163.732 48.6515 163.098 48.9515C162.482 49.2348 161.932 49.6265 161.448 50.1265C160.982 50.6098 160.707 51.1431 160.623 51.7265V55.7265C161.007 56.6431 161.607 57.4181 162.423 58.0515C163.24 58.6848 164.132 59.0015 165.098 59.0015ZM178.628 60.5015C177.561 60.5015 176.57 60.3265 175.653 59.9765C174.753 59.6098 173.961 59.0765 173.278 58.3765L173.978 57.1765C174.711 57.8598 175.445 58.3598 176.178 58.6765C176.928 58.9765 177.72 59.1265 178.553 59.1265C179.553 59.1265 180.37 58.9265 181.003 58.5265C181.653 58.1098 181.978 57.5181 181.978 56.7515C181.978 56.2348 181.82 55.8431 181.503 55.5765C181.203 55.2931 180.761 55.0681 180.178 54.9015C179.611 54.7348 178.928 54.5431 178.128 54.3265C177.228 54.0765 176.47 53.8181 175.853 53.5515C175.253 53.2681 174.795 52.9181 174.478 52.5015C174.178 52.0681 174.028 51.5098 174.028 50.8265C174.028 49.9931 174.236 49.2931 174.653 48.7265C175.086 48.1598 175.67 47.7348 176.403 47.4515C177.153 47.1515 177.986 47.0015 178.903 47.0015C179.903 47.0015 180.786 47.1598 181.553 47.4765C182.32 47.7931 182.945 48.2348 183.428 48.8015L182.603 49.9515C182.153 49.4181 181.595 49.0265 180.928 48.7765C180.278 48.5098 179.57 48.3765 178.803 48.3765C178.27 48.3765 177.761 48.4515 177.278 48.6015C176.795 48.7348 176.395 48.9681 176.078 49.3015C175.778 49.6181 175.628 50.0598 175.628 50.6265C175.628 51.3265 175.886 51.8098 176.403 52.0765C176.92 52.3431 177.703 52.6265 178.753 52.9265C179.736 53.1931 180.595 53.4598 181.328 53.7265C182.061 53.9931 182.628 54.3515 183.028 54.8015C183.428 55.2348 183.628 55.8431 183.628 56.6265C183.628 57.8431 183.17 58.7931 182.253 59.4765C181.336 60.1598 180.128 60.5015 178.628 60.5015ZM186.919 64.2515C187.153 64.2681 187.378 64.2765 187.594 64.2765C187.811 64.2931 187.969 64.2848 188.069 64.2515C188.269 64.2348 188.453 64.1181 188.619 63.9015C188.803 63.7015 189.019 63.3181 189.269 62.7515C189.536 62.2015 189.894 61.3681 190.344 60.2515L184.669 47.2265H186.469L191.244 58.5015L195.644 47.2265H197.344L190.594 64.0265C190.411 64.5098 190.103 64.9265 189.669 65.2765C189.236 65.6265 188.661 65.8098 187.944 65.8265C187.794 65.8431 187.636 65.8431 187.469 65.8265C187.303 65.8265 187.119 65.8098 186.919 65.7765V64.2515Z" fill="#421F8B"/>
<path d="M73.6257 51.2515C73.6257 50.1848 73.809 49.1265 74.1757 48.0765C74.559 47.0265 75.109 46.0765 75.8257 45.2265C76.5424 44.3598 77.4257 43.6765 78.4757 43.1765C79.5257 42.6598 80.7174 42.4015 82.0507 42.4015C83.6174 42.4015 84.9674 42.7681 86.1007 43.5015C87.234 44.2181 88.0674 45.1431 88.6007 46.2765L87.2257 47.1265C86.8424 46.3431 86.359 45.7265 85.7757 45.2765C85.1924 44.8098 84.5674 44.4765 83.9007 44.2765C83.2507 44.0765 82.6007 43.9765 81.9507 43.9765C80.884 43.9765 79.9424 44.1931 79.1257 44.6265C78.309 45.0431 77.6174 45.6098 77.0507 46.3265C76.5007 47.0431 76.084 47.8348 75.8007 48.7015C75.5174 49.5681 75.3757 50.4515 75.3757 51.3515C75.3757 52.3348 75.5424 53.2765 75.8757 54.1765C76.209 55.0598 76.6757 55.8515 77.2757 56.5515C77.8757 57.2515 78.5757 57.8098 79.3757 58.2265C80.1924 58.6265 81.0757 58.8265 82.0257 58.8265C82.6924 58.8265 83.3757 58.7098 84.0757 58.4765C84.7757 58.2431 85.4257 57.8848 86.0257 57.4015C86.6257 56.9181 87.1174 56.2931 87.5007 55.5265L88.9507 56.2765C88.5674 57.1598 87.9924 57.9098 87.2257 58.5265C86.4757 59.1431 85.6257 59.6098 84.6757 59.9265C83.7424 60.2431 82.8257 60.4015 81.9257 60.4015C80.709 60.4015 79.5924 60.1431 78.5757 59.6265C77.559 59.0931 76.6757 58.3931 75.9257 57.5265C75.1924 56.6431 74.6257 55.6598 74.2257 54.5765C73.8257 53.4765 73.6257 52.3681 73.6257 51.2515ZM97.1394 60.5015C95.8894 60.5015 94.7727 60.1931 93.7894 59.5765C92.8227 58.9598 92.0644 58.1431 91.5144 57.1265C90.9644 56.0931 90.6894 54.9765 90.6894 53.7765C90.6894 52.5598 90.9644 51.4431 91.5144 50.4265C92.081 49.3931 92.8477 48.5681 93.8144 47.9515C94.7977 47.3181 95.906 47.0015 97.1394 47.0015C98.3894 47.0015 99.4977 47.3181 100.464 47.9515C101.448 48.5681 102.214 49.3931 102.764 50.4265C103.331 51.4431 103.614 52.5598 103.614 53.7765C103.614 54.9765 103.339 56.0931 102.789 57.1265C102.239 58.1431 101.473 58.9598 100.489 59.5765C99.5227 60.1931 98.406 60.5015 97.1394 60.5015ZM92.4144 53.8015C92.4144 54.7681 92.6227 55.6515 93.0394 56.4515C93.4727 57.2348 94.0477 57.8598 94.7644 58.3265C95.481 58.7765 96.2727 59.0015 97.1394 59.0015C98.006 59.0015 98.7977 58.7681 99.5144 58.3015C100.231 57.8348 100.806 57.2015 101.239 56.4015C101.673 55.6015 101.889 54.7181 101.889 53.7515C101.889 52.7848 101.673 51.9015 101.239 51.1015C100.806 50.3015 100.231 49.6681 99.5144 49.2015C98.7977 48.7348 98.006 48.5015 97.1394 48.5015C96.2894 48.5015 95.506 48.7431 94.7894 49.2265C94.0727 49.6931 93.4977 50.3265 93.0644 51.1265C92.631 51.9265 92.4144 52.8181 92.4144 53.8015ZM105.408 56.5015C105.408 55.7015 105.641 55.0098 106.108 54.4265C106.574 53.8265 107.216 53.3598 108.033 53.0265C108.866 52.6931 109.824 52.5265 110.908 52.5265C111.541 52.5265 112.199 52.5848 112.883 52.7015C113.566 52.8015 114.174 52.9431 114.708 53.1265V52.0265C114.708 50.9265 114.383 50.0515 113.733 49.4015C113.083 48.7515 112.183 48.4265 111.033 48.4265C110.349 48.4265 109.666 48.5598 108.983 48.8265C108.299 49.0765 107.591 49.4515 106.858 49.9515L106.208 48.7515C107.058 48.1681 107.891 47.7348 108.708 47.4515C109.524 47.1515 110.358 47.0015 111.208 47.0015C112.808 47.0015 114.074 47.4598 115.008 48.3765C115.941 49.2931 116.408 50.5598 116.408 52.1765V58.2015C116.408 58.6515 116.616 58.8848 117.033 58.9015V60.2515C116.666 60.3015 116.408 60.3181 116.258 60.3015C115.841 60.2848 115.524 60.1515 115.308 59.9015C115.091 59.6515 114.974 59.3848 114.958 59.1015L114.933 58.1515C114.349 58.9015 113.591 59.4848 112.658 59.9015C111.724 60.3015 110.774 60.5015 109.808 60.5015C108.958 60.5015 108.199 60.3265 107.533 59.9765C106.866 59.6098 106.341 59.1265 105.958 58.5265C105.591 57.9098 105.408 57.2348 105.408 56.5015ZM114.133 57.5015C114.516 57.0515 114.708 56.6348 114.708 56.2515V54.3515C113.558 53.9015 112.358 53.6765 111.108 53.6765C109.891 53.6765 108.908 53.9181 108.158 54.4015C107.408 54.8848 107.033 55.5431 107.033 56.3765C107.033 57.0931 107.308 57.7431 107.858 58.3265C108.424 58.9098 109.208 59.2015 110.208 59.2015C111.024 59.2015 111.783 59.0431 112.483 58.7265C113.199 58.4098 113.749 58.0015 114.133 57.5015ZM125.731 60.5015C124.464 60.5015 123.339 60.1931 122.356 59.5765C121.372 58.9431 120.597 58.1181 120.031 57.1015C119.464 56.0681 119.181 54.9348 119.181 53.7015C119.181 52.4681 119.456 51.3515 120.006 50.3515C120.556 49.3348 121.322 48.5265 122.306 47.9265C123.289 47.3098 124.422 47.0015 125.706 47.0015C126.922 47.0015 127.989 47.2848 128.906 47.8515C129.839 48.4015 130.539 49.1515 131.006 50.1015L129.356 50.6265C128.989 49.9598 128.472 49.4431 127.806 49.0765C127.156 48.6931 126.431 48.5015 125.631 48.5015C124.747 48.5015 123.947 48.7265 123.231 49.1765C122.531 49.6265 121.964 50.2515 121.531 51.0515C121.114 51.8348 120.906 52.7181 120.906 53.7015C120.906 54.6848 121.122 55.5765 121.556 56.3765C121.989 57.1765 122.564 57.8181 123.281 58.3015C123.997 58.7681 124.789 59.0015 125.656 59.0015C126.222 59.0015 126.772 58.9015 127.306 58.7015C127.839 58.5015 128.297 58.2348 128.681 57.9015C129.064 57.5515 129.322 57.1765 129.456 56.7765L131.131 57.2765C130.897 57.8931 130.514 58.4515 129.981 58.9515C129.447 59.4348 128.814 59.8181 128.081 60.1015C127.347 60.3681 126.564 60.5015 125.731 60.5015ZM144.751 60.2515H143.051V52.9765C143.051 50.0265 142.051 48.5515 140.051 48.5515C139.401 48.5515 138.768 48.7181 138.151 49.0515C137.535 49.3681 136.985 49.8098 136.501 50.3765C136.035 50.9265 135.701 51.5598 135.501 52.2765V60.2515H133.801V42.0015H135.501V50.1765C136.018 49.2098 136.735 48.4431 137.651 47.8765C138.585 47.2931 139.576 47.0015 140.626 47.0015C141.626 47.0015 142.426 47.2431 143.026 47.7265C143.626 48.1931 144.06 48.8515 144.326 49.7015C144.61 50.5348 144.751 51.5098 144.751 52.6265V60.2515ZM148.126 54.2265V52.6515H155.426V54.2265H148.126ZM165.573 60.5015C164.49 60.5015 163.515 60.2181 162.648 59.6515C161.798 59.0848 161.123 58.3848 160.623 57.5515V65.5765H158.923V47.2265H160.448V49.7515C160.965 48.9348 161.648 48.2765 162.498 47.7765C163.365 47.2598 164.298 47.0015 165.298 47.0015C166.198 47.0015 167.023 47.1931 167.773 47.5765C168.523 47.9431 169.173 48.4431 169.723 49.0765C170.29 49.7098 170.723 50.4348 171.023 51.2515C171.323 52.0515 171.473 52.8848 171.473 53.7515C171.473 54.9681 171.223 56.0931 170.723 57.1265C170.24 58.1431 169.548 58.9598 168.648 59.5765C167.765 60.1931 166.74 60.5015 165.573 60.5015ZM165.098 59.0015C166.048 59.0015 166.865 58.7515 167.548 58.2515C168.248 57.7348 168.79 57.0765 169.173 56.2765C169.557 55.4765 169.748 54.6348 169.748 53.7515C169.748 52.8181 169.532 51.9515 169.098 51.1515C168.665 50.3515 168.082 49.7098 167.348 49.2265C166.632 48.7431 165.815 48.5015 164.898 48.5015C164.332 48.5015 163.732 48.6515 163.098 48.9515C162.482 49.2348 161.932 49.6265 161.448 50.1265C160.982 50.6098 160.707 51.1431 160.623 51.7265V55.7265C161.007 56.6431 161.607 57.4181 162.423 58.0515C163.24 58.6848 164.132 59.0015 165.098 59.0015ZM178.628 60.5015C177.561 60.5015 176.57 60.3265 175.653 59.9765C174.753 59.6098 173.961 59.0765 173.278 58.3765L173.978 57.1765C174.711 57.8598 175.445 58.3598 176.178 58.6765C176.928 58.9765 177.72 59.1265 178.553 59.1265C179.553 59.1265 180.37 58.9265 181.003 58.5265C181.653 58.1098 181.978 57.5181 181.978 56.7515C181.978 56.2348 181.82 55.8431 181.503 55.5765C181.203 55.2931 180.761 55.0681 180.178 54.9015C179.611 54.7348 178.928 54.5431 178.128 54.3265C177.228 54.0765 176.47 53.8181 175.853 53.5515C175.253 53.2681 174.795 52.9181 174.478 52.5015C174.178 52.0681 174.028 51.5098 174.028 50.8265C174.028 49.9931 174.236 49.2931 174.653 48.7265C175.086 48.1598 175.67 47.7348 176.403 47.4515C177.153 47.1515 177.986 47.0015 178.903 47.0015C179.903 47.0015 180.786 47.1598 181.553 47.4765C182.32 47.7931 182.945 48.2348 183.428 48.8015L182.603 49.9515C182.153 49.4181 181.595 49.0265 180.928 48.7765C180.278 48.5098 179.57 48.3765 178.803 48.3765C178.27 48.3765 177.761 48.4515 177.278 48.6015C176.795 48.7348 176.395 48.9681 176.078 49.3015C175.778 49.6181 175.628 50.0598 175.628 50.6265C175.628 51.3265 175.886 51.8098 176.403 52.0765C176.92 52.3431 177.703 52.6265 178.753 52.9265C179.736 53.1931 180.595 53.4598 181.328 53.7265C182.061 53.9931 182.628 54.3515 183.028 54.8015C183.428 55.2348 183.628 55.8431 183.628 56.6265C183.628 57.8431 183.17 58.7931 182.253 59.4765C181.336 60.1598 180.128 60.5015 178.628 60.5015ZM186.919 64.2515C187.153 64.2681 187.378 64.2765 187.594 64.2765C187.811 64.2931 187.969 64.2848 188.069 64.2515C188.269 64.2348 188.453 64.1181 188.619 63.9015C188.803 63.7015 189.019 63.3181 189.269 62.7515C189.536 62.2015 189.894 61.3681 190.344 60.2515L184.669 47.2265H186.469L191.244 58.5015L195.644 47.2265H197.344L190.594 64.0265C190.411 64.5098 190.103 64.9265 189.669 65.2765C189.236 65.6265 188.661 65.8098 187.944 65.8265C187.794 65.8431 187.636 65.8431 187.469 65.8265C187.303 65.8265 187.119 65.8098 186.919 65.7765V64.2515Z" fill="url(#paint0_linear)"/>
<path d="M14.5622 19.472C14.5622 19.472 10.7217 24.7179 13.3903 27.5578C16.9767 31.3707 34.8522 25.3621 46.5715 17.342C46.5715 17.342 38.0573 25.8355 36.4618 30.687C34.8663 35.5385 37.4925 45.6885 22.1021 58.1657C22.1021 58.1657 31.1246 39.5617 27.3829 36.3536C23.2034 32.7643 13.4609 35.4727 10.7217 31.7125C6.72579 26.2299 14.5622 19.472 14.5622 19.472Z" fill="url(#paint1_linear)"/>
<path d="M27.7482 23.6916C29.9316 23.6916 31.7017 21.443 31.7017 18.6692C31.7017 15.8953 29.9316 13.6467 27.7482 13.6467C25.5647 13.6467 23.7947 15.8953 23.7947 18.6692C23.7947 21.443 25.5647 23.6916 27.7482 23.6916Z" fill="url(#paint2_linear)"/>
<path d="M49.775 10.1367C49.6338 12.1746 48.0948 13.7523 46.3298 13.6472C44.5649 13.542 43.2376 11.8065 43.3788 9.76858C43.52 7.73069 45.0591 6.15296 46.824 6.25814C48.589 6.35018 49.9162 8.09882 49.775 10.1367Z" fill="url(#paint3_linear)"/>
<path d="M13.192 29.911C18.3881 33.6187 30.1215 26.8476 31.7029 33.9474C33.2843 41.0472 26.9587 52.8801 22.1015 58.1786C37.5061 45.7014 34.8798 35.5514 36.4612 30.6999C38.0426 25.8484 46.585 17.355 46.585 17.355C34.8657 25.3751 16.9902 31.3836 13.4038 27.5708C10.7352 24.7308 14.5758 19.4849 14.5758 19.4849C14.5758 19.4849 7.98188 26.1902 13.192 29.911Z" fill="url(#paint4_linear)"/>
<path d="M30.5015 22.2719C32.0829 19.9579 30.5862 18.8535 27.7482 19.3399C24.9243 19.8264 23.7947 18.6694 24.4159 15.9741C24.0206 16.7498 23.7947 17.6833 23.7947 18.6694C23.7947 21.4436 25.5596 23.6918 27.7482 23.6918C28.8213 23.6787 29.7814 23.1396 30.5015 22.2719Z" fill="url(#paint5_linear)"/>
<path opacity="0.22" d="M29.4154 35.6168C26.7468 29.4505 16.2841 34.828 11.8082 30.5287C7.31813 26.2294 14.5756 19.4714 14.5756 19.4714C14.5756 19.4714 6.73922 26.2294 10.7351 31.7251C13.4743 35.4854 23.2169 32.7769 27.3963 36.3662C31.138 39.5743 22.1155 58.1783 22.1155 58.1783C24.2335 55.0097 32.084 41.7831 29.4154 35.6168Z" fill="url(#paint6_linear)"/>
<path opacity="0.22" d="M13.6855 28.9644C18.3591 31.686 30.5161 25.8221 33.2412 31.1995C35.9663 36.5901 30.6573 51.1972 22.1008 58.1786C37.5054 45.7014 34.8791 35.5514 36.4605 30.6999C38.0419 25.8484 46.5843 17.355 46.5843 17.355C34.865 25.3751 16.9895 31.3836 13.4031 27.5708C10.7345 24.7308 14.575 19.4849 14.575 19.4849C14.575 19.4849 9.01189 26.2428 13.6855 28.9644Z" fill="url(#paint7_linear)"/>
<path d="M37.4494 54.129C38.0848 47.5683 36.221 41.0339 36.221 41.0339C35.0067 46.3456 32.7334 48.5413 32.7334 48.5413C33.7641 50.8158 34.2301 53.0641 34.3572 55.1151C34.8796 54.9574 35.4161 54.7996 35.9527 54.6155C36.4327 54.4577 36.9411 54.2868 37.4494 54.129Z" fill="url(#paint8_linear)"/>
<path d="M38.8749 32.6196C40.2022 32.2383 41.5435 31.9228 42.8849 31.6204C44.2404 31.3311 45.61 31.0945 46.9796 30.8972C49.7329 30.516 52.5569 30.3187 55.3949 30.4765C56.821 30.5685 58.2612 30.7526 59.6873 31.1076C61.1134 31.4757 62.5536 31.9885 63.8667 32.9351C64.5162 33.4085 65.1234 33.9869 65.5752 34.6969C65.8011 35.0519 65.9988 35.4332 66.14 35.8145L66.3377 36.4193C66.38 36.6165 66.4224 36.8269 66.4506 37.0372C66.493 37.2476 66.493 37.4448 66.5071 37.6552C66.5212 37.8655 66.5212 38.0627 66.5071 38.26C66.493 38.4572 66.4789 38.6675 66.4506 38.8648L66.3377 39.4433C66.3094 39.6405 66.2388 39.8245 66.1823 40.0086C66.1259 40.1927 66.0694 40.3767 65.9988 40.5477C65.8576 40.8895 65.7164 41.2576 65.5328 41.5732C64.8551 42.9011 63.9797 44.0581 63.0337 45.1231C62.0876 46.188 61.0428 47.1347 59.9556 48.0287C58.8684 48.9228 57.7529 49.7642 56.5951 50.5531C55.4373 51.3288 54.2512 52.0651 53.0369 52.775C51.8226 53.4719 50.5942 54.1292 49.3376 54.7472C48.7163 55.0627 48.0809 55.352 47.4456 55.6544C46.8102 55.9436 46.1748 56.2329 45.5253 56.509C42.9555 57.6002 40.3292 58.5863 37.6606 59.4409C34.992 60.2824 32.281 61.0187 29.5136 61.6103C26.7603 62.1888 23.9646 62.6621 21.1265 62.9251C18.2885 63.188 15.4222 63.2932 12.5276 63.0828C11.0733 62.9645 9.61899 62.7804 8.16467 62.4518C6.71034 62.1231 5.25602 61.6497 3.87229 60.8872C3.5193 60.7031 3.19455 60.4796 2.85568 60.2561C2.68624 60.1378 2.53092 60.0063 2.37561 59.8748L2.13557 59.6776C2.06498 59.6118 1.98026 59.533 1.90966 59.4541C1.30251 58.8887 0.794207 58.1787 0.469455 57.403C0.116463 56.6273 -0.0247335 55.7859 0.00350577 54.9707C0.0176254 54.1555 0.215301 53.393 0.483574 52.6961C1.03424 51.2893 1.8673 50.106 2.7992 49.0411C3.7311 47.9761 4.76183 47.0426 5.84904 46.188C8.02347 44.4657 10.3673 43.0326 12.81 41.7704C14.0384 41.1393 15.2669 40.5608 16.5376 40.0086C17.8084 39.4827 19.0792 38.9699 20.3641 38.5098C19.178 39.1671 17.992 39.8245 16.8341 40.5214C15.6763 41.205 14.5326 41.915 13.4313 42.6776C11.2286 44.1764 9.11069 45.7804 7.24689 47.5685C6.31499 48.4626 5.45369 49.3961 4.71947 50.3953C3.98525 51.3814 3.3781 52.4332 3.08159 53.4719C2.77096 54.5105 2.7992 55.4966 3.23691 56.2855C3.4487 56.6799 3.7311 57.048 4.12645 57.3767C4.16881 57.4162 4.21116 57.4556 4.26764 57.4951L4.42296 57.6002C4.53592 57.6791 4.63475 57.758 4.74771 57.8238C4.98775 57.9552 5.21366 58.0999 5.46781 58.2182C6.48443 58.7178 7.67048 59.0465 8.91301 59.27C10.1555 59.4935 11.4404 59.6118 12.7394 59.6644C15.3516 59.7433 18.0061 59.5987 20.6464 59.27C23.2868 58.9545 25.9272 58.4811 28.5393 57.8764C31.1515 57.2979 33.7354 56.5747 36.2769 55.7596C38.8326 54.9576 41.3317 54.0372 43.7886 53.0117C46.2454 52.0125 48.6316 50.8555 50.9472 49.6196C53.2487 48.3705 55.4796 46.99 57.4988 45.4386C58.5154 44.6629 59.4755 43.8477 60.3368 42.98C61.1981 42.1122 61.9747 41.1787 62.5395 40.219C63.1043 39.246 63.4431 38.2468 63.3867 37.3396C63.3443 36.4324 62.8783 35.591 62.0453 34.8941C61.6358 34.5392 61.1557 34.2236 60.6192 33.9607C60.0827 33.6977 59.5037 33.461 58.9107 33.2507C57.7105 32.8431 56.4115 32.5801 55.0984 32.3698C52.458 31.9753 49.7329 31.9096 47.0078 31.9622C45.6382 31.9885 44.2686 32.0805 42.899 32.1989C41.6141 32.304 40.2445 32.4618 38.8749 32.6196Z" fill="url(#paint9_linear)"/>
<path opacity="0.47" d="M4.76157 50.382C5.48167 49.3828 6.35709 48.4493 7.28899 47.5552C9.15278 45.7671 11.2707 44.1631 13.4734 42.6643C14.5747 41.9149 15.7184 41.2049 16.8762 40.5081C18.034 39.8112 19.2201 39.1538 20.4062 38.4965C20.4062 38.4965 -1.71935 48.5939 1.58465 56.2459C4.88865 63.8978 24.5291 61.8994 36.7708 57.8236C49.0126 53.7478 67.8482 43.7818 64.5442 36.3008C61.3955 29.1616 43.5483 31.4493 39.3689 32.488C39.1994 32.5405 39.03 32.58 38.8605 32.6326C40.2301 32.4748 41.5998 32.317 42.9694 32.2118C44.339 32.0935 45.7086 32.0146 47.0782 31.9752C49.8033 31.9094 52.5425 31.9883 55.1687 32.3828C56.4819 32.58 57.7668 32.8561 58.9811 33.2637C59.5882 33.4609 60.153 33.6975 60.6895 33.9736C61.2261 34.2366 61.7062 34.5653 62.1156 34.9071C62.9487 35.604 63.4146 36.4454 63.457 37.3526C63.5135 38.2598 63.1746 39.2722 62.6098 40.232C62.045 41.2049 61.2684 42.1252 60.4071 42.993C59.5458 43.8607 58.5857 44.689 57.5691 45.4516C55.5359 46.9899 53.3191 48.3835 51.0176 49.6326C48.7019 50.8684 46.3157 52.0254 43.8589 53.0247C41.4021 54.037 38.9029 54.9705 36.3472 55.7725C33.8057 56.5877 31.2218 57.3108 28.6097 57.8893C25.9975 58.4941 23.3572 58.9543 20.7168 59.283C18.0764 59.6117 15.4078 59.7563 12.8098 59.6774C11.5108 59.6248 10.2118 59.5065 8.98335 59.283C7.74082 59.0726 6.55477 58.7308 5.53815 58.2312C5.26988 58.1128 5.04396 57.9682 4.81805 57.8367C4.70509 57.771 4.60625 57.679 4.4933 57.6132L4.33798 57.508C4.29562 57.4686 4.23914 57.4292 4.19678 57.3897C3.80143 57.0742 3.51904 56.706 3.30725 56.2985C2.88366 55.5096 2.8413 54.5235 3.15193 53.4848C3.43432 52.4199 4.04147 51.3681 4.76157 50.382Z" fill="url(#paint10_linear)"/>
<path d="M8.50403 65.2908C11.2291 65.3959 13.926 65.3828 16.5946 65.2776C19.2632 65.1724 21.9318 64.9752 24.5581 64.6728C27.1843 64.3573 29.7965 63.9628 32.3663 63.4238C34.936 62.8979 37.4776 62.2536 39.9485 61.4648C44.9186 59.9002 49.7052 57.836 54.1529 55.2065C56.3838 53.8917 58.5159 52.4454 60.535 50.8283C62.5541 49.2243 64.4885 47.4888 66.197 45.5166C65.6886 46.6999 64.9827 47.8043 64.2343 48.8824C63.486 49.9605 62.6388 50.986 61.7493 51.959C59.9561 53.9311 57.937 55.7061 55.7484 57.3101C51.3713 60.505 46.3588 62.9373 41.0922 64.6071C35.8256 66.3031 30.2765 67.1577 24.7699 67.3024C22.0024 67.3681 19.2491 67.2498 16.524 66.9342C15.1544 66.7764 13.7989 66.5792 12.4717 66.3031C11.808 66.1717 11.1303 66.027 10.4667 65.8693C9.80304 65.6852 9.13941 65.5143 8.50403 65.2908Z" fill="url(#paint11_linear)"/>
<path opacity="0.47" d="M38.7339 63.6604C56.1435 59.4137 66.1826 45.5166 66.1826 45.5166C64.4741 47.4888 62.5397 49.2243 60.5206 50.8283C58.5015 52.4323 56.3553 53.8917 54.1385 55.2065C49.7049 57.836 44.9042 59.9002 39.9341 61.4648C37.4491 62.2536 34.9216 62.8979 32.3519 63.4238C29.7821 63.9628 27.1699 64.3573 24.5437 64.6728C21.9174 64.9752 19.2629 65.1856 16.5802 65.2776C13.8975 65.3828 11.2147 65.4091 8.48962 65.2908C8.50374 65.2908 21.3244 67.894 38.7339 63.6604Z" fill="url(#paint12_linear)"/>
<path d="M53.0936 0C53.0936 0 52.5994 2.36659 49.9449 2.5901C52.5853 2.81361 53.0936 5.1802 53.0936 5.1802C53.0936 5.1802 53.5878 2.81361 56.2422 2.5901C53.5878 2.36659 53.0936 0 53.0936 0Z" fill="url(#paint13_linear)"/>
<path d="M45.7934 1.76172C45.7934 1.76172 45.4686 3.3263 43.7178 3.47092C45.4545 3.61555 45.7934 5.18012 45.7934 5.18012C45.7934 5.18012 46.1181 3.61555 47.8689 3.47092C46.1322 3.3263 45.7934 1.76172 45.7934 1.76172Z" fill="url(#paint14_linear)"/>
<path d="M49.9453 3.87793C49.9453 3.87793 49.6912 5.06122 48.3781 5.16641C49.7053 5.27159 49.9453 6.45488 49.9453 6.45488C49.9453 6.45488 50.1995 5.27159 51.5126 5.16641C50.1995 5.06122 49.9453 3.87793 49.9453 3.87793Z" fill="url(#paint15_linear)"/>

</symbol></svg>
