<svg width="40" height="30" viewBox="0 0 40 30" fill="none" xmlns="http://www.w3.org/2000/svg">
<path d="M39.8098 0.158804C39.6463 0.0130213 39.4036 -0.0355728 39.1856 0.0262743L0.427669 11.2206C0.204751 11.2869 0.041278 11.4591 0.00660194 11.6668C-0.0280742 11.8744 0.0759535 12.082 0.269149 12.2013L9.38896 17.7808L11.3061 28.8028C11.3061 28.8161 11.311 28.8293 11.316 28.8382C11.316 28.8426 11.316 28.847 11.3209 28.8514C11.3259 28.8647 11.3308 28.8779 11.3358 28.8912C11.3358 28.8956 11.3407 28.9044 11.3457 28.9088C11.3506 28.9177 11.3556 28.9265 11.3605 28.9353C11.3655 28.9398 11.3655 28.9486 11.3705 28.953C11.3754 28.9619 11.3804 28.9707 11.3853 28.9795C11.3903 28.9839 11.3952 28.9928 11.3952 28.9972C11.4002 29.006 11.4101 29.0149 11.415 29.0237C11.42 29.0281 11.42 29.0325 11.4249 29.037C11.4349 29.0502 11.4497 29.0635 11.4596 29.0767C11.4646 29.0811 11.4646 29.0811 11.4695 29.0855C11.4794 29.0944 11.4893 29.1032 11.4993 29.1121L11.5042 29.1165C11.5092 29.1165 11.5092 29.1209 11.5141 29.1209C11.524 29.1297 11.5339 29.1341 11.5438 29.143C11.5488 29.1474 11.5537 29.1518 11.5587 29.1518C11.5686 29.1562 11.5785 29.1651 11.5884 29.1695C11.5934 29.1739 11.5983 29.1739 11.6033 29.1783C11.6181 29.1872 11.628 29.1916 11.6429 29.196C11.6528 29.2004 11.6578 29.2048 11.6677 29.2048C11.6776 29.2092 11.6875 29.2137 11.6974 29.2181C11.7073 29.2225 11.7123 29.2225 11.7222 29.2269C11.7321 29.2313 11.742 29.2313 11.7469 29.2357C11.7568 29.2357 11.7618 29.2402 11.7717 29.2402C11.7816 29.2402 11.7915 29.2446 11.8014 29.2446C11.8113 29.2446 11.8163 29.249 11.8262 29.249C11.8312 29.249 11.8361 29.249 11.8411 29.2534C11.846 29.2534 11.851 29.2534 11.8559 29.2534C11.8658 29.2534 11.8708 29.2534 11.8807 29.2534C11.8906 29.2534 11.9005 29.2534 11.9104 29.2534C11.9154 29.2534 11.9203 29.2534 11.9253 29.2534C11.9302 29.2534 11.9302 29.2534 11.9352 29.2534C11.95 29.2534 11.9649 29.2534 11.9798 29.2534C11.9847 29.2534 11.9897 29.2534 11.9946 29.2534C12.0144 29.2534 12.0343 29.249 12.0491 29.2446C12.0541 29.2446 12.059 29.2402 12.064 29.2402C12.0788 29.2357 12.0887 29.2357 12.1036 29.2313C12.1135 29.2313 12.1185 29.2269 12.1284 29.2269C12.1383 29.2225 12.1482 29.2225 12.1581 29.2181C12.168 29.2137 12.173 29.2137 12.1829 29.2092C12.1977 29.2048 12.2076 29.2004 12.2175 29.1916C12.2275 29.1872 12.2374 29.1827 12.2423 29.1783C12.2522 29.1739 12.2621 29.1651 12.277 29.1606C12.2819 29.1562 12.2918 29.1518 12.2968 29.1474C12.3067 29.1386 12.3166 29.1341 12.3265 29.1253C12.3315 29.1209 12.3364 29.1165 12.3414 29.1165C12.3562 29.1032 12.3711 29.09 12.386 29.0767L18.3651 23.2543L29.2287 29.9028C29.3327 29.9647 29.4565 30 29.5804 30C29.6497 30 29.7191 29.9912 29.7835 29.9691C29.9717 29.9116 30.1154 29.7747 30.1699 29.6068L39.9782 0.702173C40.0377 0.516632 39.9733 0.300168 39.8098 0.158804ZM35.2623 2.31903L9.96855 16.7957L2.00791 11.923L35.2623 2.31903ZM15.3533 20.6302C15.3483 20.6346 15.3483 20.639 15.3433 20.639C15.3384 20.6434 15.3285 20.6523 15.3235 20.6567C15.3136 20.6655 15.3087 20.6744 15.2988 20.6832C15.2938 20.6876 15.2889 20.6964 15.2839 20.7009C15.274 20.7097 15.269 20.7229 15.2591 20.7318C15.2542 20.7362 15.2492 20.7406 15.2492 20.7495C15.2393 20.7627 15.2344 20.776 15.2294 20.7892C15.2294 20.7936 15.2245 20.7936 15.2245 20.798L15.2195 20.8069L12.2126 26.784L10.6324 17.7278L34.3112 4.17886L15.3533 20.6302ZM14.0504 25.8209L16.0468 21.8539L17.3248 22.6358L14.0504 25.8209ZM29.2187 28.5731L16.7552 20.9482L38.0859 2.43831L29.2187 28.5731Z" fill="white"/>
</svg>
