<svg width="83" height="90" viewBox="0 0 83 90" fill="none" xmlns="http://www.w3.org/2000/svg">
<path d="M41.3846 55.9477C56.3731 55.9477 68.5237 43.8936 68.5237 29.0241C68.5237 14.1547 56.3731 2.10059 41.3846 2.10059C26.3962 2.10059 14.2456 14.1547 14.2456 29.0241C14.2456 43.8936 26.3962 55.9477 41.3846 55.9477Z" stroke="#230C53" stroke-width="4" stroke-linecap="round" stroke-linejoin="round"/>
<path fill-rule="evenodd" clip-rule="evenodd" d="M79.9728 82.0023C78.6348 68.6559 70.9868 56.5539 57.786 52.5898C53.8069 55.0259 46.574 56.5177 41.3861 56.6309C36.1982 56.5192 28.9653 55.0274 24.9862 52.5898C11.7854 56.5539 4.13741 68.6559 2.79938 82.0023C2.79938 82.0023 1.87037 87.1248 7.28632 87.1248H75.4859C80.9019 87.1248 79.9728 82.0023 79.9728 82.0023Z" stroke="#230C53" stroke-width="4" stroke-linecap="round" stroke-linejoin="round"/>
</svg>
