<svg width="32" height="32" viewBox="0 0 32 32" fill="none" xmlns="http://www.w3.org/2000/svg">
<path fill-rule="evenodd" clip-rule="evenodd" d="M10.5268 6.93457C10.512 6.93723 10.4974 6.94085 10.4832 6.94539C8.99348 7.40292 7.98786 8.19194 7.44166 9.20192C6.89545 10.2119 6.81571 11.415 7.06011 12.6685C7.54892 15.1755 9.32863 17.9486 11.5842 20.2557C13.8398 22.5628 16.5738 24.3985 19.0953 24.9214C20.3561 25.1828 21.5706 25.1092 22.6165 24.5617C23.6623 24.0141 24.5091 22.9971 25.0475 21.4766C25.072 21.4032 25.0713 21.3237 25.0456 21.2507C25.02 21.1777 24.9708 21.1153 24.9058 21.0733L19.9129 17.9446C19.9024 17.9368 19.8915 17.9296 19.8802 17.923L19.8584 17.9014C19.8548 17.9013 19.8512 17.9013 19.8475 17.9014C19.8404 17.8975 19.8331 17.8939 19.8257 17.8906C19.8221 17.8905 19.8185 17.8905 19.8149 17.8906C19.7977 17.878 19.7795 17.867 19.7603 17.8578C19.7567 17.8577 19.7531 17.8577 19.7495 17.8578C19.7422 17.8576 19.7349 17.8576 19.7277 17.8578C19.724 17.8577 19.7204 17.8577 19.7168 17.8578C19.6954 17.8521 19.6735 17.8485 19.6514 17.847C19.6293 17.8485 19.6074 17.8521 19.586 17.8578C19.5257 17.8685 19.4693 17.8948 19.4224 17.9341C19.4186 17.9412 19.4149 17.9484 19.4115 17.9557C19.3908 17.9752 19.3725 17.9972 19.357 18.0211L18.0707 19.2966C15.8369 18.2452 14.1798 16.4024 12.7072 13.9114L13.8954 12.7232L13.9499 12.6687C13.9575 12.6618 13.9648 12.6546 13.9717 12.647C13.9754 12.6471 13.979 12.6471 13.9826 12.647C13.9865 12.64 13.9901 12.6327 13.9935 12.6254C13.9972 12.6219 14.0008 12.6183 14.0044 12.6146C14.0083 12.6075 14.0119 12.6003 14.0153 12.593C14.0153 12.5894 14.0153 12.5858 14.0153 12.5821C14.019 12.5786 14.0226 12.575 14.0261 12.5713C14.03 12.5643 14.0337 12.5571 14.037 12.5497C14.0407 12.5462 14.0444 12.5426 14.0479 12.5389C14.0481 12.5317 14.0481 12.5245 14.0479 12.5173C14.0481 12.5101 14.0481 12.5028 14.0479 12.4956C14.0516 12.4921 14.0553 12.4885 14.0588 12.4848C14.059 12.4776 14.059 12.4704 14.0588 12.4632C14.0589 12.4596 14.0589 12.456 14.0588 12.4524C14.059 12.4452 14.059 12.438 14.0588 12.4308C14.0589 12.4272 14.0589 12.4236 14.0588 12.42C14.059 12.4127 14.059 12.4055 14.0588 12.3983C14.0589 12.3947 14.0589 12.3911 14.0588 12.3875C14.059 12.3803 14.059 12.3731 14.0588 12.3659C14.0589 12.3623 14.0589 12.3587 14.0588 12.3551C14.0554 12.3477 14.0518 12.3405 14.0479 12.3334C14.048 12.3298 14.048 12.3262 14.0479 12.3226C14.0445 12.3153 14.0409 12.3081 14.037 12.301C14.0371 12.2974 14.0371 12.2938 14.037 12.2902C14.0301 12.2827 14.0228 12.2754 14.0152 12.2685C14.0153 12.2649 14.0153 12.2613 14.0152 12.2577C14.0117 12.254 14.0081 12.2504 14.0043 12.2469C13.9923 12.2235 13.9777 12.2016 13.9607 12.1815C13.9572 12.1778 13.9536 12.1742 13.9499 12.1707L10.8865 7.10166C10.8563 7.05332 10.8146 7.01313 10.7652 6.98463C10.7158 6.95612 10.6601 6.94015 10.6031 6.93815C10.5778 6.93536 10.5522 6.93536 10.5268 6.93815L10.5268 6.93457ZM10.4396 7.69765L13.263 12.3742L12.0203 13.6061C11.9652 13.6608 11.9299 13.7323 11.92 13.8093C11.9101 13.8863 11.9262 13.9644 11.9658 14.0312C13.5593 16.7906 15.4159 18.8966 18.0052 20.0378C18.0691 20.0644 18.1396 20.0713 18.2076 20.0577C18.2755 20.0441 18.3379 20.0106 18.3867 19.9614L19.7058 18.6424L24.2953 21.5094C23.8043 22.7528 23.116 23.5242 22.3003 23.9513C21.4291 24.4075 20.3858 24.4838 19.237 24.2456C16.9395 23.7692 14.2609 22.0013 12.0748 19.7652C9.88867 17.5292 8.19278 14.8246 7.7469 12.5378C7.52396 11.3944 7.61304 10.372 8.06304 9.53994C8.48396 8.76162 9.2309 8.11904 10.4396 7.69765Z" fill="white" stroke="white" stroke-width="0.5"/>
<path fill-rule="evenodd" clip-rule="evenodd" d="M16 1C7.72193 1 1 7.71843 1 16C1 19.0653 1.92372 21.922 3.5524 24.3666L1.78914 30.2511C1.77074 30.3126 1.76966 30.3779 1.78601 30.44C1.80236 30.5021 1.83551 30.5584 1.88181 30.6028C1.92811 30.6473 1.98578 30.678 2.04845 30.6918C2.11113 30.7056 2.17639 30.7018 2.23706 30.6809L8.00116 28.6917C10.3114 30.1532 13.0594 31 16 31C24.2815 31 31 24.2815 31 16C31 7.7185 24.2815 1 16 1ZM16 1.69767C23.9046 1.69767 30.3023 8.09542 30.3023 16C30.3023 23.9046 23.9046 30.3023 16 30.3023C13.1346 30.3023 10.4664 29.4613 8.23641 28.0144C8.19193 27.9855 8.14146 27.9672 8.08883 27.9608C8.03621 27.9544 7.98281 27.96 7.9327 27.9773L2.65272 29.7996L4.26784 24.4095C4.28275 24.3597 4.28636 24.3073 4.27842 24.256C4.27048 24.2047 4.25119 24.1558 4.22195 24.1129C2.60882 21.746 1.69767 18.9811 1.69767 16C1.69767 8.09552 8.099 1.69767 16 1.69767Z" fill="white" stroke="white" stroke-width="0.5"/>
</svg>
