<svg width="34" height="34" viewBox="0 0 34 34" fill="none" xmlns="http://www.w3.org/2000/svg">
<path fill-rule="evenodd" clip-rule="evenodd" d="M11.1621 7.3302C11.1464 7.33304 11.1309 7.3369 11.1156 7.34174C9.52664 7.82977 8.45398 8.67139 7.87136 9.74871C7.28874 10.826 7.20368 12.1093 7.46437 13.4464C7.98577 16.1205 9.88413 19.0785 12.2901 21.5394C14.696 24.0003 17.6123 25.9584 20.3019 26.5161C21.6467 26.795 22.9423 26.7165 24.0578 26.1324C25.1734 25.5483 26.0767 24.4636 26.6509 22.8417C26.677 22.7634 26.6763 22.6786 26.649 22.6007C26.6216 22.5229 26.5691 22.4563 26.4998 22.4115L21.174 19.0743C21.1629 19.0659 21.1512 19.0583 21.1392 19.0512L21.1159 19.0281C21.112 19.0281 21.1082 19.0281 21.1043 19.0281C21.0967 19.024 21.0889 19.0202 21.081 19.0166C21.0772 19.0165 21.0733 19.0165 21.0694 19.0166C21.0512 19.0032 21.0317 18.9915 21.0113 18.9816C21.0074 18.9816 21.0036 18.9816 20.9997 18.9816C20.9919 18.9814 20.9842 18.9814 20.9764 18.9816C20.9726 18.9816 20.9687 18.9816 20.9648 18.9816C20.942 18.9756 20.9186 18.9717 20.895 18.9701C20.8715 18.9717 20.8481 18.9756 20.8253 18.9816C20.761 18.993 20.7009 19.0211 20.6509 19.0631C20.6467 19.0706 20.6428 19.0783 20.6392 19.0861C20.6171 19.1069 20.5976 19.1303 20.5811 19.1559L19.209 20.5163C16.8263 19.3948 15.0587 17.4292 13.4879 14.7722L14.7554 13.5047L14.8135 13.4466C14.8216 13.4392 14.8294 13.4315 14.8368 13.4235C14.8406 13.4236 14.8445 13.4236 14.8484 13.4235C14.8525 13.416 14.8564 13.4083 14.86 13.4004C14.8639 13.3967 14.8678 13.3928 14.8716 13.3889C14.8757 13.3813 14.8796 13.3736 14.8832 13.3658C14.8833 13.362 14.8833 13.3581 14.8832 13.3543C14.8872 13.3505 14.891 13.3467 14.8948 13.3427C14.899 13.3352 14.9028 13.3275 14.9064 13.3197C14.9104 13.3159 14.9143 13.3121 14.918 13.3082C14.9183 13.3005 14.9183 13.2928 14.918 13.2851C14.9183 13.2774 14.9183 13.2697 14.918 13.262C14.922 13.2583 14.9259 13.2544 14.9296 13.2505C14.9299 13.2428 14.9299 13.2351 14.9296 13.2274C14.9297 13.2236 14.9297 13.2197 14.9296 13.2159C14.9299 13.2082 14.9299 13.2005 14.9296 13.1928C14.9297 13.189 14.9297 13.1851 14.9296 13.1813C14.9299 13.1736 14.9299 13.1659 14.9296 13.1582C14.9297 13.1544 14.9297 13.1505 14.9296 13.1467C14.9299 13.139 14.9299 13.1313 14.9296 13.1236C14.9297 13.1197 14.9297 13.1159 14.9296 13.1121C14.926 13.1042 14.9222 13.0966 14.918 13.089C14.9181 13.0852 14.9181 13.0813 14.918 13.0775C14.9144 13.0696 14.9106 13.0619 14.9064 13.0544C14.9065 13.0505 14.9065 13.0467 14.9064 13.0429C14.899 13.0348 14.8913 13.0271 14.8832 13.0198C14.8832 13.0159 14.8832 13.0121 14.8832 13.0082C14.8794 13.0043 14.8755 13.0005 14.8716 12.9967C14.8587 12.9718 14.8431 12.9484 14.825 12.9269C14.8213 12.923 14.8174 12.9192 14.8134 12.9154L11.5459 7.50843C11.5136 7.45686 11.4692 7.414 11.4165 7.38359C11.3638 7.35319 11.3044 7.33615 11.2436 7.33402C11.2165 7.33104 11.1892 7.33104 11.1622 7.33402L11.1621 7.3302ZM11.0691 8.14415L14.0808 13.1325L12.7552 14.4465C12.6964 14.5048 12.6588 14.5811 12.6483 14.6632C12.6377 14.7454 12.6549 14.8287 12.6971 14.9C14.3968 17.8433 16.3772 20.0897 19.1391 21.3069C19.2074 21.3353 19.2825 21.3427 19.355 21.3282C19.4275 21.3137 19.494 21.278 19.5461 21.2255L20.9531 19.8186L25.8486 22.8767C25.3248 24.2029 24.5906 25.0258 23.7206 25.4813C22.7913 25.9679 21.6784 26.0494 20.4531 25.7953C18.0024 25.2871 15.1452 23.4013 12.8134 21.0162C10.4815 18.6311 8.67256 15.7462 8.19695 13.3069C7.95915 12.0873 8.05417 10.9968 8.53417 10.1093C8.98315 9.27905 9.77989 8.59364 11.0691 8.14415Z" fill="#230C53" stroke="#230C53" stroke-width="0.5"/>
<path fill-rule="evenodd" clip-rule="evenodd" d="M17 1C8.17006 1 1 8.16633 1 17C1 20.2697 1.9853 23.3168 3.72256 25.9244L1.84175 32.2012C1.82212 32.2668 1.82097 32.3365 1.83841 32.4027C1.85585 32.4689 1.89121 32.529 1.9406 32.5764C1.98999 32.6237 2.05149 32.6566 2.11835 32.6713C2.18521 32.686 2.25482 32.682 2.31953 32.6597L8.46791 30.5378C10.9322 32.0967 13.8634 33 17 33C25.8336 33 33 25.8336 33 17C33 8.1664 25.8336 1 17 1ZM17 1.74419C25.4315 1.74419 32.2558 8.56845 32.2558 17C32.2558 25.4316 25.4315 32.2558 17 32.2558C13.9436 32.2558 11.0975 31.3588 8.71884 29.8153C8.67139 29.7845 8.61756 29.765 8.56142 29.7582C8.50529 29.7513 8.44834 29.7573 8.39488 29.7758L2.76291 31.7195L4.4857 25.9701C4.5016 25.9171 4.50545 25.8611 4.49698 25.8064C4.48852 25.7517 4.46794 25.6995 4.43674 25.6538C2.71607 23.1291 1.74419 20.1798 1.74419 17C1.74419 8.56856 8.57226 1.74419 17 1.74419Z" fill="#230C53" stroke="#230C53" stroke-width="0.5"/>
</svg>
